<svg width="169" height="35" viewBox="0 68 169 36" fill="none" xmlns="http://www.w3.org/2000/svg">
<path d="M38.6976 75.3403C41.3252 75.3403 43.269 75.9972 44.5292 77.3109C45.8161 78.6247 46.4596 80.6222 46.4596 83.3033V95.449H42.5585V92.1914C42.0491 93.3443 41.285 94.2291 40.2661 94.8458C39.2741 95.4356 38.1078 95.7306 36.7672 95.7306C35.4802 95.7306 34.3005 95.4758 33.2281 94.9664C32.1556 94.4302 31.311 93.6929 30.6944 92.7545C30.1045 91.8161 29.8096 90.7704 29.8096 89.6175C29.8096 88.1965 30.1715 87.0838 30.8954 86.2794C31.6462 85.4483 32.8661 84.8584 34.5552 84.5099C36.2712 84.1613 38.6172 83.987 41.5933 83.987H42.5183V82.8207C42.5183 81.3193 42.1966 80.2334 41.5531 79.5631C40.9364 78.8928 39.9176 78.5577 38.4966 78.5577C36.2712 78.5577 34.0458 79.2414 31.8204 80.6088L30.6139 77.7533C31.6596 77.0294 32.9197 76.453 34.3944 76.024C35.8958 75.5682 37.3302 75.3403 38.6976 75.3403ZM37.4911 92.7142C38.9658 92.7142 40.1723 92.2182 41.1107 91.2262C42.0491 90.2074 42.5183 88.907 42.5183 87.3251V86.2794H41.7944C39.7031 86.2794 38.0944 86.3733 36.9683 86.561C35.8422 86.7486 35.0378 87.0704 34.5552 87.5262C34.0726 87.9552 33.8313 88.5852 33.8313 89.4164C33.8313 90.3548 34.1665 91.1458 34.8368 91.7892C35.5339 92.4059 36.4186 92.7142 37.4911 92.7142Z" fill="#2C365D"/>
<path d="M27.4335 92.5936C28.0502 92.5936 28.6534 92.5534 29.2433 92.473V95.5697C28.573 95.677 27.6748 95.7306 26.9509 95.7306C24.4038 95.7306 22.5002 95.1139 21.24 93.8806C20.0067 92.6205 19.39 90.8107 19.39 88.4512V78.9599H15.5693V75.8229H19.39V69.9109H23.452V75.8229H28.8411V78.9599H23.452V88.2904C23.452 91.1592 24.7791 92.5936 27.4335 92.5936Z" fill="#2C365D"/>
<path d="M48.6572 69.9109H52.7192V95.4491H48.6572V69.9109Z" fill="#2C365D"/>
<path d="M55.0557 69.9109H59.1176V95.4491H55.0557V69.9109Z" fill="#2C365D"/>
<path d="M80.989 75.8631L69.2857 102.688H65.1835L68.602 94.9664L60.3574 75.8631H64.6205L70.7335 90.8642L76.927 75.8631H80.989Z" fill="#2C365D"/>
<path d="M0 71.4093C0 70.5818 0.655982 69.9109 1.46518 69.9109H9.64574C10.4549 69.9109 11.1109 70.5818 11.1109 71.4093V72.3942L6.39154 75.6648C5.94435 75.9747 5.67756 76.4842 5.67756 77.0283C5.67756 77.5724 5.94435 78.0819 6.39154 78.3918L11.1109 81.6624V84.194L6.39154 87.4646C5.94435 87.7745 5.67756 88.284 5.67756 88.8281C5.67756 89.3722 5.94435 89.8816 6.39154 90.1916L11.1109 93.4622V94.6343C11.1109 95.4619 10.4549 96.1327 9.64574 96.1327H1.46518C0.655981 96.1327 0 95.4619 0 94.6343V71.4093Z" fill="#FF5E00"/>
<path d="M99.184 69.2653V95.3133H97.532V91.4587C96.9551 92.796 96.0898 93.8187 94.9361 94.5267C93.8085 95.2346 92.445 95.5886 90.8455 95.5886C89.1673 95.5886 87.6857 95.1822 86.4009 94.3693C85.116 93.5302 84.1196 92.3634 83.4116 90.8687C82.7036 89.3479 82.3496 87.591 82.3496 85.5981C82.3496 83.6315 82.7036 81.914 83.4116 80.4456C84.1196 78.9771 85.116 77.8365 86.4009 77.0236C87.6857 76.2107 89.1673 75.8043 90.8455 75.8043C92.445 75.8043 93.8085 76.1583 94.9361 76.8663C96.0898 77.5743 96.9551 78.5838 97.532 79.8949V69.2653H99.184ZM90.8455 93.976C92.9956 93.976 94.6476 93.2549 95.8014 91.8127C96.9551 90.3705 97.532 88.3252 97.532 85.6768C97.532 83.0546 96.9551 81.0224 95.8014 79.5802C94.6476 78.138 93.0088 77.417 90.8848 77.417C88.7608 77.417 87.0957 78.138 85.8895 79.5802C84.7096 80.9962 84.1196 83.0022 84.1196 85.5981C84.1196 88.2203 84.7096 90.2787 85.8895 91.7734C87.0957 93.2418 88.7477 93.976 90.8455 93.976Z" fill="#2C365D"/>
<path d="M103.921 95.3133V76.2763H105.573V95.3133H103.921ZM103.488 69.2653H106.005V71.7858H103.488V69.2653Z" fill="#2C365D"/>
<path d="M125.983 76.2763V94.4087C125.983 97.1357 125.341 99.1941 124.056 100.584C122.771 101.974 120.857 102.669 118.313 102.669C115.14 102.669 112.453 101.764 110.25 99.9546L111.037 98.5779C112.348 99.5219 113.528 100.164 114.577 100.505C115.625 100.872 116.884 101.056 118.353 101.056C120.319 101.056 121.814 100.505 122.836 99.4039C123.859 98.3288 124.37 96.7424 124.37 94.6446V90.5147C123.82 91.8783 122.954 92.9271 121.774 93.6613C120.621 94.3693 119.218 94.7233 117.566 94.7233C115.888 94.7233 114.393 94.33 113.082 93.5433C111.797 92.7567 110.788 91.6423 110.053 90.2001C109.345 88.7579 108.991 87.1059 108.991 85.2441C108.991 83.3824 109.345 81.7435 110.053 80.3276C110.788 78.8854 111.797 77.7709 113.082 76.9843C114.393 76.1976 115.888 75.8043 117.566 75.8043C119.192 75.8043 120.581 76.1583 121.735 76.8663C122.889 77.5743 123.754 78.5838 124.331 79.8949V76.2763H125.983ZM117.566 93.1107C119.69 93.1107 121.342 92.4158 122.522 91.026C123.728 89.6101 124.331 87.6828 124.331 85.2441C124.331 82.8055 123.728 80.8913 122.522 79.5016C121.342 78.1118 119.69 77.417 117.566 77.417C115.468 77.417 113.803 78.1118 112.571 79.5016C111.364 80.8913 110.761 82.8055 110.761 85.2441C110.761 87.709 111.364 89.6363 112.571 91.026C113.803 92.4158 115.468 93.1107 117.566 93.1107Z" fill="#2C365D"/>
<path d="M130.716 95.3133V76.2763H132.368V95.3133H130.716ZM130.284 69.2653H132.801V71.7858H130.284V69.2653Z" fill="#2C365D"/>
<path d="M144.204 94.0153C144.807 94.0153 145.358 93.976 145.856 93.8973L145.777 95.4313C145.227 95.51 144.637 95.5493 144.007 95.5493C142.041 95.5493 140.52 94.9855 139.445 93.858C138.396 92.7042 137.871 91.1703 137.871 89.2561V77.6923H134.056V76.2763H137.871V69.2653H139.523V76.2763H145.266V77.6923H139.523V88.9021C139.523 90.5803 139.917 91.852 140.703 92.7173C141.49 93.5827 142.657 94.0153 144.204 94.0153Z" fill="#2C365D"/>
<path d="M154.842 75.8043C159.194 75.8043 161.371 78.1512 161.371 82.8449V95.3133H159.679V91.8127C159.103 93.0189 158.263 93.9498 157.162 94.6053C156.087 95.2609 154.855 95.5886 153.465 95.5886C152.259 95.5886 151.144 95.3395 150.122 94.8413C149.125 94.3431 148.325 93.6613 147.722 92.796C147.145 91.9045 146.857 90.9343 146.857 89.8854C146.857 88.4694 147.224 87.3812 147.958 86.6208C148.719 85.8341 149.951 85.2704 151.656 84.9295C153.386 84.5886 155.799 84.4182 158.893 84.4182H159.679V82.7662C159.679 80.9044 159.312 79.554 158.578 78.7149C157.844 77.8496 156.677 77.417 155.078 77.417C153.845 77.417 152.704 77.5874 151.656 77.9283C150.633 78.2429 149.558 78.7674 148.43 79.5016L147.644 78.0856C148.614 77.3776 149.728 76.827 150.987 76.4336C152.272 76.0141 153.557 75.8043 154.842 75.8043ZM153.465 93.9367C154.645 93.9367 155.707 93.6613 156.651 93.1107C157.595 92.5338 158.329 91.7471 158.853 90.7507C159.404 89.7543 159.679 88.6268 159.679 87.3681V85.9521H158.932C156.179 85.9521 154.081 86.0701 152.639 86.3061C151.197 86.5159 150.187 86.8961 149.61 87.4468C149.033 87.9712 148.745 88.7579 148.745 89.8067C148.745 91.0129 149.191 92.0094 150.082 92.796C150.974 93.5564 152.101 93.9367 153.465 93.9367Z" fill="#2C365D"/>
<path d="M166.031 95.3133V69.2653H167.683V95.3133H166.031Z" fill="#2C365D"/>
</svg>
