<svg width="224" height="309" viewBox="0 0 224 309" fill="none" xmlns="http://www.w3.org/2000/svg">
<path d="M38.6976 6.11761C41.3252 6.11761 43.269 6.7745 44.5292 8.08827C45.8161 9.40205 46.4596 11.3995 46.4596 14.0807V26.2264H42.5585V22.9688C42.0491 24.1217 41.285 25.0064 40.2661 25.6231C39.2741 26.213 38.1078 26.5079 36.7672 26.5079C35.4802 26.5079 34.3005 26.2532 33.2281 25.7438C32.1556 25.2075 31.311 24.4702 30.6944 23.5318C30.1045 22.5934 29.8096 21.5477 29.8096 20.3948C29.8096 18.9738 30.1715 17.8611 30.8954 17.0568C31.6462 16.2256 32.8661 15.6358 34.5552 15.2872C36.2712 14.9387 38.6172 14.7644 41.5933 14.7644H42.5183V13.5981C42.5183 12.0966 42.1966 11.0107 41.5531 10.3405C40.9364 9.67016 39.9176 9.33502 38.4966 9.33502C36.2712 9.33502 34.0458 10.0187 31.8204 11.3861L30.6139 8.53067C31.6596 7.80675 32.9197 7.2303 34.3944 6.80131C35.8958 6.34551 37.3302 6.11761 38.6976 6.11761ZM37.4911 23.4916C38.9658 23.4916 40.1723 22.9956 41.1107 22.0035C42.0491 20.9847 42.5183 19.6843 42.5183 18.1024V17.0568H41.7944C39.7031 17.0568 38.0944 17.1506 36.9683 17.3383C35.8422 17.526 35.0378 17.8477 34.5552 18.3035C34.0726 18.7325 33.8313 19.3626 33.8313 20.1938C33.8313 21.1322 34.1665 21.9231 34.8368 22.5666C35.5339 23.1833 36.4186 23.4916 37.4911 23.4916Z" fill="#2C365D"/>
<path d="M27.4335 23.371C28.0502 23.371 28.6534 23.3308 29.2433 23.2503V26.3471C28.573 26.4543 27.6748 26.508 26.9509 26.508C24.4038 26.508 22.5002 25.8913 21.24 24.6579C20.0067 23.3978 19.39 21.588 19.39 19.2286V9.73724H15.5693V6.60027H19.39V0.688293H23.452V6.60027H28.8411V9.73724H23.452V19.0677C23.452 21.9366 24.7791 23.371 27.4335 23.371Z" fill="#2C365D"/>
<path d="M48.6572 0.688293H52.7192V26.2264H48.6572V0.688293Z" fill="#2C365D"/>
<path d="M55.0557 0.688293H59.1176V26.2264H55.0557V0.688293Z" fill="#2C365D"/>
<path d="M80.989 6.64044L69.2857 33.4655H65.1835L68.602 25.7438L60.3574 6.64044H64.6205L70.7335 21.6416L76.927 6.64044H80.989Z" fill="#2C365D"/>
<path d="M0 2.18668C0 1.35914 0.655982 0.688293 1.46518 0.688293H9.64574C10.4549 0.688293 11.1109 1.35914 11.1109 2.18668V3.17153L6.39154 6.44215C5.94435 6.75206 5.67756 7.26155 5.67756 7.80563C5.67756 8.34971 5.94435 8.8592 6.39154 9.16911L11.1109 12.4397V14.9713L6.39154 18.2419C5.94435 18.5519 5.67756 19.0613 5.67756 19.6054C5.67756 20.1495 5.94435 20.659 6.39154 20.9689L11.1109 24.2395V25.4117C11.1109 26.2392 10.4549 26.9101 9.64574 26.9101H1.46518C0.655981 26.9101 0 26.2392 0 25.4117V2.18668Z" fill="#FFD41E"/>
<path d="M91.1666 7.40109C92.8448 7.40109 94.3264 7.80753 95.6112 8.6204C96.8961 9.43328 97.8925 10.5739 98.6005 12.0423C99.3085 13.5108 99.6625 15.2283 99.6625 17.1949C99.6625 19.1878 99.3085 20.9446 98.6005 22.4655C97.8925 23.9601 96.8961 25.127 95.6112 25.9661C94.3264 26.779 92.8448 27.1854 91.1666 27.1854C89.5671 27.1854 88.1905 26.8314 87.0367 26.1234C85.9092 25.4154 85.057 24.3928 84.4801 23.0555V26.9101H82.8281V0H84.4801V11.4917C85.057 10.1806 85.9092 9.17106 87.0367 8.46307C88.1905 7.75509 89.5671 7.40109 91.1666 7.40109ZM91.1666 25.5728C93.2644 25.5728 94.9032 24.8386 96.0832 23.3701C97.2632 21.9017 97.8532 19.8433 97.8532 17.1949C97.8532 14.599 97.2632 12.593 96.0832 11.177C94.9032 9.73483 93.2513 9.01373 91.1273 9.01373C89.0034 9.01373 87.3645 9.73483 86.2107 11.177C85.057 12.6192 84.4801 14.6514 84.4801 17.2736C84.4801 19.922 85.057 21.9673 86.2107 23.4095C87.3645 24.8517 89.0165 25.5728 91.1666 25.5728Z" fill="#2C365D"/>
<path d="M103.101 26.9101V7.87308H104.753V26.9101H103.101ZM102.669 0H105.186V2.56318H102.669V0Z" fill="#2C365D"/>
<path d="M109.47 26.9101V0H111.122V26.9101H109.47Z" fill="#2C365D"/>
<path d="M115.838 26.9101V0H117.49V26.9101H115.838Z" fill="#2C365D"/>
<path d="M122.207 26.9101V7.87308H123.859V26.9101H122.207ZM121.774 0H124.291V2.56318H121.774V0Z" fill="#2C365D"/>
<path d="M136.796 7.40109C141.411 7.40109 143.718 9.81349 143.718 14.6383V26.9101H142.066V14.7956C142.066 12.7766 141.66 11.3081 140.847 10.3904C140.034 9.44639 138.723 8.9744 136.914 8.9744C134.895 8.9744 133.269 9.60372 132.037 10.8624C130.83 12.0948 130.227 13.7468 130.227 15.8183V26.9101H128.575V7.87308H130.188V11.295C130.765 10.0364 131.63 9.07929 132.784 8.42374C133.964 7.74198 135.301 7.40109 136.796 7.40109Z" fill="#2C365D"/>
<path d="M164.043 7.87308V26.0054C164.043 28.7325 163.401 30.7909 162.116 32.1807C160.831 33.5704 158.917 34.2653 156.373 34.2653C153.2 34.2653 150.513 33.3606 148.31 31.5513L149.097 30.1747C150.408 31.1187 151.588 31.7611 152.636 32.102C153.685 32.4691 154.944 32.6526 156.412 32.6526C158.379 32.6526 159.874 32.102 160.896 31.0007C161.919 29.9256 162.43 28.3392 162.43 26.2414V22.1115C161.88 23.475 161.014 24.5239 159.834 25.2581C158.681 25.9661 157.278 26.3201 155.626 26.3201C153.948 26.3201 152.453 25.9268 151.142 25.1401C149.857 24.3535 148.847 23.239 148.113 21.7968C147.405 20.3546 147.051 18.7027 147.051 16.8409C147.051 14.9792 147.405 13.3403 148.113 11.9243C148.847 10.4822 149.857 9.36773 151.142 8.58107C152.453 7.79442 153.948 7.40109 155.626 7.40109C157.252 7.40109 158.641 7.75509 159.795 8.46307C160.949 9.17106 161.814 10.1806 162.391 11.4917V7.87308H164.043ZM155.626 24.7075C157.75 24.7075 159.402 24.0126 160.582 22.6228C161.788 21.2069 162.391 19.2796 162.391 16.8409C162.391 14.4023 161.788 12.4881 160.582 11.0984C159.402 9.70861 157.75 9.01373 155.626 9.01373C153.528 9.01373 151.863 9.70861 150.631 11.0984C149.424 12.4881 148.821 14.4023 148.821 16.8409C148.821 19.3058 149.424 21.2331 150.631 22.6228C151.863 24.0126 153.528 24.7075 155.626 24.7075Z" fill="#2C365D"/>
<path d="M38.6976 75.3403C41.3252 75.3403 43.269 75.9972 44.5292 77.3109C45.8161 78.6247 46.4596 80.6222 46.4596 83.3033V95.449H42.5585V92.1914C42.0491 93.3443 41.285 94.2291 40.2661 94.8458C39.2741 95.4356 38.1078 95.7306 36.7672 95.7306C35.4802 95.7306 34.3005 95.4758 33.2281 94.9664C32.1556 94.4302 31.311 93.6929 30.6944 92.7545C30.1045 91.8161 29.8096 90.7704 29.8096 89.6175C29.8096 88.1965 30.1715 87.0838 30.8954 86.2794C31.6462 85.4483 32.8661 84.8584 34.5552 84.5099C36.2712 84.1613 38.6172 83.987 41.5933 83.987H42.5183V82.8207C42.5183 81.3193 42.1966 80.2334 41.5531 79.5631C40.9364 78.8928 39.9176 78.5577 38.4966 78.5577C36.2712 78.5577 34.0458 79.2414 31.8204 80.6088L30.6139 77.7533C31.6596 77.0294 32.9197 76.453 34.3944 76.024C35.8958 75.5682 37.3302 75.3403 38.6976 75.3403ZM37.4911 92.7142C38.9658 92.7142 40.1723 92.2182 41.1107 91.2262C42.0491 90.2074 42.5183 88.907 42.5183 87.3251V86.2794H41.7944C39.7031 86.2794 38.0944 86.3733 36.9683 86.561C35.8422 86.7486 35.0378 87.0704 34.5552 87.5262C34.0726 87.9552 33.8313 88.5852 33.8313 89.4164C33.8313 90.3548 34.1665 91.1458 34.8368 91.7892C35.5339 92.4059 36.4186 92.7142 37.4911 92.7142Z" fill="#2C365D"/>
<path d="M27.4335 92.5936C28.0502 92.5936 28.6534 92.5534 29.2433 92.473V95.5697C28.573 95.677 27.6748 95.7306 26.9509 95.7306C24.4038 95.7306 22.5002 95.1139 21.24 93.8806C20.0067 92.6205 19.39 90.8107 19.39 88.4512V78.9599H15.5693V75.8229H19.39V69.9109H23.452V75.8229H28.8411V78.9599H23.452V88.2904C23.452 91.1592 24.7791 92.5936 27.4335 92.5936Z" fill="#2C365D"/>
<path d="M48.6572 69.9109H52.7192V95.4491H48.6572V69.9109Z" fill="#2C365D"/>
<path d="M55.0557 69.9109H59.1176V95.4491H55.0557V69.9109Z" fill="#2C365D"/>
<path d="M80.989 75.8631L69.2857 102.688H65.1835L68.602 94.9664L60.3574 75.8631H64.6205L70.7335 90.8642L76.927 75.8631H80.989Z" fill="#2C365D"/>
<path d="M0 71.4093C0 70.5818 0.655982 69.9109 1.46518 69.9109H9.64574C10.4549 69.9109 11.1109 70.5818 11.1109 71.4093V72.3942L6.39154 75.6648C5.94435 75.9747 5.67756 76.4842 5.67756 77.0283C5.67756 77.5724 5.94435 78.0819 6.39154 78.3918L11.1109 81.6624V84.194L6.39154 87.4646C5.94435 87.7745 5.67756 88.284 5.67756 88.8281C5.67756 89.3722 5.94435 89.8816 6.39154 90.1916L11.1109 93.4622V94.6343C11.1109 95.4619 10.4549 96.1327 9.64574 96.1327H1.46518C0.655981 96.1327 0 95.4619 0 94.6343V71.4093Z" fill="#FF5E00"/>
<path d="M99.184 69.2653V95.3133H97.532V91.4587C96.9551 92.796 96.0898 93.8187 94.9361 94.5267C93.8085 95.2346 92.445 95.5886 90.8455 95.5886C89.1673 95.5886 87.6857 95.1822 86.4009 94.3693C85.116 93.5302 84.1196 92.3634 83.4116 90.8687C82.7036 89.3479 82.3496 87.591 82.3496 85.5981C82.3496 83.6315 82.7036 81.914 83.4116 80.4456C84.1196 78.9771 85.116 77.8365 86.4009 77.0236C87.6857 76.2107 89.1673 75.8043 90.8455 75.8043C92.445 75.8043 93.8085 76.1583 94.9361 76.8663C96.0898 77.5743 96.9551 78.5838 97.532 79.8949V69.2653H99.184ZM90.8455 93.976C92.9956 93.976 94.6476 93.2549 95.8014 91.8127C96.9551 90.3705 97.532 88.3252 97.532 85.6768C97.532 83.0546 96.9551 81.0224 95.8014 79.5802C94.6476 78.138 93.0088 77.417 90.8848 77.417C88.7608 77.417 87.0957 78.138 85.8895 79.5802C84.7096 80.9962 84.1196 83.0022 84.1196 85.5981C84.1196 88.2203 84.7096 90.2787 85.8895 91.7734C87.0957 93.2418 88.7477 93.976 90.8455 93.976Z" fill="#2C365D"/>
<path d="M103.921 95.3133V76.2763H105.573V95.3133H103.921ZM103.488 69.2653H106.005V71.7858H103.488V69.2653Z" fill="#2C365D"/>
<path d="M125.983 76.2763V94.4087C125.983 97.1357 125.341 99.1941 124.056 100.584C122.771 101.974 120.857 102.669 118.313 102.669C115.14 102.669 112.453 101.764 110.25 99.9546L111.037 98.5779C112.348 99.5219 113.528 100.164 114.577 100.505C115.625 100.872 116.884 101.056 118.353 101.056C120.319 101.056 121.814 100.505 122.836 99.4039C123.859 98.3288 124.37 96.7424 124.37 94.6446V90.5147C123.82 91.8783 122.954 92.9271 121.774 93.6613C120.621 94.3693 119.218 94.7233 117.566 94.7233C115.888 94.7233 114.393 94.33 113.082 93.5433C111.797 92.7567 110.788 91.6423 110.053 90.2001C109.345 88.7579 108.991 87.1059 108.991 85.2441C108.991 83.3824 109.345 81.7435 110.053 80.3276C110.788 78.8854 111.797 77.7709 113.082 76.9843C114.393 76.1976 115.888 75.8043 117.566 75.8043C119.192 75.8043 120.581 76.1583 121.735 76.8663C122.889 77.5743 123.754 78.5838 124.331 79.8949V76.2763H125.983ZM117.566 93.1107C119.69 93.1107 121.342 92.4158 122.522 91.026C123.728 89.6101 124.331 87.6828 124.331 85.2441C124.331 82.8055 123.728 80.8913 122.522 79.5016C121.342 78.1118 119.69 77.417 117.566 77.417C115.468 77.417 113.803 78.1118 112.571 79.5016C111.364 80.8913 110.761 82.8055 110.761 85.2441C110.761 87.709 111.364 89.6363 112.571 91.026C113.803 92.4158 115.468 93.1107 117.566 93.1107Z" fill="#2C365D"/>
<path d="M130.716 95.3133V76.2763H132.368V95.3133H130.716ZM130.284 69.2653H132.801V71.7858H130.284V69.2653Z" fill="#2C365D"/>
<path d="M144.204 94.0153C144.807 94.0153 145.358 93.976 145.856 93.8973L145.777 95.4313C145.227 95.51 144.637 95.5493 144.007 95.5493C142.041 95.5493 140.52 94.9855 139.445 93.858C138.396 92.7042 137.871 91.1703 137.871 89.2561V77.6923H134.056V76.2763H137.871V69.2653H139.523V76.2763H145.266V77.6923H139.523V88.9021C139.523 90.5803 139.917 91.852 140.703 92.7173C141.49 93.5827 142.657 94.0153 144.204 94.0153Z" fill="#2C365D"/>
<path d="M154.842 75.8043C159.194 75.8043 161.371 78.1512 161.371 82.8449V95.3133H159.679V91.8127C159.103 93.0189 158.263 93.9498 157.162 94.6053C156.087 95.2609 154.855 95.5886 153.465 95.5886C152.259 95.5886 151.144 95.3395 150.122 94.8413C149.125 94.3431 148.325 93.6613 147.722 92.796C147.145 91.9045 146.857 90.9343 146.857 89.8854C146.857 88.4694 147.224 87.3812 147.958 86.6208C148.719 85.8341 149.951 85.2704 151.656 84.9295C153.386 84.5886 155.799 84.4182 158.893 84.4182H159.679V82.7662C159.679 80.9044 159.312 79.554 158.578 78.7149C157.844 77.8496 156.677 77.417 155.078 77.417C153.845 77.417 152.704 77.5874 151.656 77.9283C150.633 78.2429 149.558 78.7674 148.43 79.5016L147.644 78.0856C148.614 77.3776 149.728 76.827 150.987 76.4336C152.272 76.0141 153.557 75.8043 154.842 75.8043ZM153.465 93.9367C154.645 93.9367 155.707 93.6613 156.651 93.1107C157.595 92.5338 158.329 91.7471 158.853 90.7507C159.404 89.7543 159.679 88.6268 159.679 87.3681V85.9521H158.932C156.179 85.9521 154.081 86.0701 152.639 86.3061C151.197 86.5159 150.187 86.8961 149.61 87.4468C149.033 87.9712 148.745 88.7579 148.745 89.8067C148.745 91.0129 149.191 92.0094 150.082 92.796C150.974 93.5564 152.101 93.9367 153.465 93.9367Z" fill="#2C365D"/>
<path d="M166.031 95.3133V69.2653H167.683V95.3133H166.031Z" fill="#2C365D"/>
<path d="M38.6976 143.806C41.3252 143.806 43.269 144.463 44.5292 145.776C45.8161 147.09 46.4596 149.088 46.4596 151.769V163.915H42.5585V160.657C42.0491 161.81 41.285 162.695 40.2661 163.311C39.2741 163.901 38.1078 164.196 36.7672 164.196C35.4802 164.196 34.3005 163.941 33.2281 163.432C32.1556 162.896 31.311 162.158 30.6944 161.22C30.1045 160.282 29.8096 159.236 29.8096 158.083C29.8096 156.662 30.1715 155.549 30.8954 154.745C31.6462 153.914 32.8661 153.324 34.5552 152.975C36.2712 152.627 38.6172 152.453 41.5933 152.453H42.5183V151.286C42.5183 149.785 42.1966 148.699 41.5531 148.029C40.9364 147.358 39.9176 147.023 38.4966 147.023C36.2712 147.023 34.0458 147.707 31.8204 149.074L30.6139 146.219C31.6596 145.495 32.9197 144.919 34.3944 144.49C35.8958 144.034 37.3302 143.806 38.6976 143.806ZM37.4911 161.18C38.9658 161.18 40.1723 160.684 41.1107 159.692C42.0491 158.673 42.5183 157.373 42.5183 155.791V154.745H41.7944C39.7031 154.745 38.0944 154.839 36.9683 155.027C35.8422 155.214 35.0378 155.536 34.5552 155.992C34.0726 156.421 33.8313 157.051 33.8313 157.882C33.8313 158.82 34.1665 159.611 34.8368 160.255C35.5339 160.871 36.4186 161.18 37.4911 161.18Z" fill="#2C365D"/>
<path d="M27.4335 161.059C28.0502 161.059 28.6534 161.019 29.2433 160.939V164.035C28.573 164.143 27.6748 164.196 26.9509 164.196C24.4038 164.196 22.5002 163.579 21.24 162.346C20.0067 161.086 19.39 159.276 19.39 156.917V147.425H15.5693V144.288H19.39V138.376H23.452V144.288H28.8411V147.425H23.452V156.756C23.452 159.625 24.7792 161.059 27.4335 161.059Z" fill="#2C365D"/>
<path d="M48.6572 138.376H52.7192V163.915H48.6572V138.376Z" fill="#2C365D"/>
<path d="M55.0557 138.376H59.1176V163.915H55.0557V138.376Z" fill="#2C365D"/>
<path d="M80.989 144.329L69.2857 171.154H65.1835L68.602 163.432L60.3574 144.329H64.6205L70.7335 159.33L76.927 144.329H80.989Z" fill="#2C365D"/>
<path d="M0 139.875C0 139.047 0.655982 138.376 1.46518 138.376H9.64574C10.4549 138.376 11.1109 139.047 11.1109 139.875V140.86L6.39154 144.13C5.94435 144.44 5.67756 144.95 5.67756 145.494V145.494C5.67756 146.038 5.94435 146.547 6.39154 146.857L11.1109 150.128V152.66L6.39154 155.93C5.94435 156.24 5.67756 156.75 5.67756 157.294V157.294C5.67756 157.838 5.94435 158.347 6.39154 158.657L11.1109 161.928V163.1C11.1109 163.927 10.4549 164.598 9.64574 164.598H1.46518C0.655981 164.598 0 163.927 0 163.1V139.875Z" fill="#C1EE41"/>
<path d="M90.1828 144.27C94.5356 144.27 96.712 146.617 96.712 151.31V163.779H95.0207V160.278C94.4438 161.484 93.6047 162.415 92.5034 163.071C91.4283 163.726 90.1959 164.054 88.8061 164.054C87.5999 164.054 86.4855 163.805 85.4629 163.307C84.4664 162.809 83.6667 162.127 83.0636 161.262C82.4867 160.37 82.1982 159.4 82.1982 158.351C82.1982 156.935 82.5653 155.847 83.2996 155.086C84.06 154.3 85.2924 153.736 86.9968 153.395C88.7275 153.054 91.1399 152.884 94.234 152.884H95.0207V151.232C95.0207 149.37 94.6536 148.02 93.9194 147.18C93.1852 146.315 92.0183 145.882 90.4188 145.882C89.1863 145.882 88.0457 146.053 86.9968 146.394C85.9742 146.708 84.8991 147.233 83.7715 147.967L82.9849 146.551C83.9551 145.843 85.0695 145.292 86.3282 144.899C87.613 144.48 88.8979 144.27 90.1828 144.27ZM88.8061 162.402C89.9861 162.402 91.0481 162.127 91.9921 161.576C92.9361 160.999 93.6703 160.213 94.1947 159.216C94.7454 158.22 95.0207 157.092 95.0207 155.834V154.418H94.2734C91.5201 154.418 89.4223 154.536 87.9801 154.772C86.5379 154.981 85.5284 155.362 84.9515 155.912C84.3746 156.437 84.0862 157.223 84.0862 158.272C84.0862 159.478 84.532 160.475 85.4235 161.262C86.3151 162.022 87.4426 162.402 88.8061 162.402Z" fill="#2C365D"/>
<path d="M108.773 144.27C113.388 144.27 115.696 146.682 115.696 151.507V163.779H114.044V151.664C114.044 149.645 113.638 148.177 112.825 147.259C112.012 146.315 110.701 145.843 108.891 145.843C106.872 145.843 105.247 146.472 104.014 147.731C102.808 148.964 102.205 150.616 102.205 152.687V163.779H100.553V144.742H102.165V148.164C102.742 146.905 103.608 145.948 104.761 145.292C105.941 144.611 107.279 144.27 108.773 144.27Z" fill="#2C365D"/>
<path d="M126.863 144.27C131.215 144.27 133.392 146.617 133.392 151.31V163.779H131.7V160.278C131.124 161.484 130.284 162.415 129.183 163.071C128.108 163.726 126.876 164.054 125.486 164.054C124.28 164.054 123.165 163.805 122.143 163.307C121.146 162.809 120.346 162.127 119.743 161.262C119.166 160.37 118.878 159.4 118.878 158.351C118.878 156.935 119.245 155.847 119.979 155.086C120.74 154.3 121.972 153.736 123.677 153.395C125.407 153.054 127.82 152.884 130.914 152.884H131.7V151.232C131.7 149.37 131.333 148.02 130.599 147.18C129.865 146.315 128.698 145.882 127.099 145.882C125.866 145.882 124.725 146.053 123.677 146.394C122.654 146.708 121.579 147.233 120.451 147.967L119.665 146.551C120.635 145.843 121.749 145.292 123.008 144.899C124.293 144.48 125.578 144.27 126.863 144.27ZM125.486 162.402C126.666 162.402 127.728 162.127 128.672 161.576C129.616 160.999 130.35 160.213 130.874 159.216C131.425 158.22 131.7 157.092 131.7 155.834V154.418H130.953C128.2 154.418 126.102 154.536 124.66 154.772C123.218 154.981 122.208 155.362 121.631 155.912C121.054 156.437 120.766 157.223 120.766 158.272C120.766 159.478 121.212 160.475 122.103 161.262C122.995 162.022 124.122 162.402 125.486 162.402Z" fill="#2C365D"/>
<path d="M138.052 163.779V137.688H139.704V163.779H138.052Z" fill="#2C365D"/>
<path d="M158.305 144.742H160.036L148.865 170.859H147.174L150.124 163.975L141.943 144.742H143.713L150.989 162.324L158.305 144.742Z" fill="#2C365D"/>
<path d="M171.378 162.481C171.981 162.481 172.531 162.442 173.03 162.363L172.951 163.897C172.4 163.975 171.81 164.015 171.181 164.015C169.214 164.015 167.693 163.451 166.618 162.324C165.57 161.17 165.045 159.636 165.045 157.722V146.158H161.23V144.742H165.045V137.688H166.697V144.742H172.44V146.158H166.697V157.368C166.697 159.046 167.09 160.318 167.877 161.183C168.664 162.048 169.831 162.481 171.378 162.481Z" fill="#2C365D"/>
<path d="M175.479 163.779V144.742H177.131V163.779H175.479ZM175.047 137.688H177.564V140.251H175.047V137.688Z" fill="#2C365D"/>
<path d="M189.282 164.054C187.525 164.054 185.991 163.648 184.68 162.835C183.369 162.022 182.346 160.868 181.612 159.374C180.904 157.879 180.55 156.161 180.55 154.221C180.55 152.254 180.904 150.524 181.612 149.029C182.346 147.508 183.369 146.341 184.68 145.528C186.017 144.689 187.564 144.27 189.321 144.27C190.606 144.27 191.825 144.506 192.979 144.978C194.133 145.424 195.077 146.04 195.811 146.826L195.024 148.242C194.028 147.403 193.084 146.8 192.192 146.433C191.301 146.04 190.357 145.843 189.361 145.843C187.184 145.843 185.467 146.59 184.208 148.085C182.949 149.58 182.32 151.638 182.32 154.26C182.32 156.83 182.936 158.836 184.169 160.278C185.427 161.72 187.145 162.442 189.321 162.442C190.318 162.442 191.262 162.258 192.153 161.891C193.071 161.524 194.028 160.921 195.024 160.082L195.811 161.458C195.051 162.271 194.08 162.914 192.9 163.385C191.721 163.831 190.514 164.054 189.282 164.054Z" fill="#2C365D"/>
<path d="M204.296 164.054C201.359 164.054 198.986 163.189 197.177 161.458L197.964 160.082C198.986 160.947 199.97 161.55 200.914 161.891C201.884 162.232 203.051 162.402 204.414 162.402C206.092 162.402 207.377 162.101 208.269 161.498C209.16 160.894 209.606 160.042 209.606 158.941C209.606 158.023 209.318 157.289 208.741 156.738C208.164 156.188 207.233 155.755 205.948 155.44L202.723 154.693C201.228 154.352 200.035 153.736 199.144 152.844C198.278 151.927 197.846 150.878 197.846 149.698C197.846 148.072 198.462 146.761 199.694 145.764C200.927 144.768 202.592 144.27 204.69 144.27C206.027 144.27 207.259 144.493 208.387 144.938C209.514 145.384 210.432 146.014 211.14 146.826L210.353 148.242C209.514 147.456 208.636 146.879 207.718 146.512C206.8 146.118 205.791 145.922 204.69 145.922C203.142 145.922 201.923 146.236 201.032 146.866C200.166 147.495 199.734 148.36 199.734 149.462C199.734 150.432 199.996 151.205 200.52 151.782C201.071 152.333 201.923 152.753 203.077 153.041L206.341 153.828C209.724 154.614 211.415 156.279 211.415 158.823C211.415 160.396 210.773 161.668 209.488 162.638C208.203 163.582 206.473 164.054 204.296 164.054Z" fill="#2C365D"/>
<path d="M38.6976 280.783C41.3252 280.783 43.269 281.44 44.5292 282.753C45.8161 284.067 46.4596 286.065 46.4596 288.746V300.892H42.5585V297.634C42.0491 298.787 41.285 299.672 40.2661 300.288C39.2741 300.878 38.1078 301.173 36.7672 301.173C35.4802 301.173 34.3005 300.918 33.2281 300.409C32.1556 299.873 31.311 299.135 30.6944 298.197C30.1045 297.259 29.8096 296.213 29.8096 295.06C29.8096 293.639 30.1715 292.526 30.8954 291.722C31.6462 290.891 32.8661 290.301 34.5552 289.952C36.2712 289.604 38.6172 289.43 41.5933 289.43H42.5183V288.263C42.5183 286.762 42.1966 285.676 41.5531 285.006C40.9364 284.335 39.9176 284 38.4966 284C36.2712 284 34.0458 284.684 31.8204 286.051L30.6139 283.196C31.6596 282.472 32.9197 281.896 34.3944 281.467C35.8958 281.011 37.3302 280.783 38.6976 280.783ZM37.4911 298.157C38.9658 298.157 40.1723 297.661 41.1107 296.669C42.0491 295.65 42.5183 294.35 42.5183 292.768V291.722H41.7944C39.7031 291.722 38.0944 291.816 36.9683 292.004C35.8422 292.191 35.0378 292.513 34.5552 292.969C34.0726 293.398 33.8313 294.028 33.8313 294.859C33.8313 295.797 34.1665 296.588 34.8368 297.232C35.5339 297.848 36.4186 298.157 37.4911 298.157Z" fill="#2C365D"/>
<path d="M27.4335 298.036C28.0502 298.036 28.6534 297.996 29.2433 297.916V301.012C28.573 301.12 27.6748 301.173 26.9509 301.173C24.4038 301.173 22.5002 300.557 21.24 299.323C20.0067 298.063 19.39 296.253 19.39 293.894V284.402H15.5693V281.265H19.39V275.354H23.452V281.265H28.8411V284.402H23.452V293.733C23.452 296.602 24.7791 298.036 27.4335 298.036Z" fill="#2C365D"/>
<path d="M48.6572 275.354H52.7192V300.892H48.6572V275.354Z" fill="#2C365D"/>
<path d="M55.0557 275.354H59.1176V300.892H55.0557V275.354Z" fill="#2C365D"/>
<path d="M80.989 281.306L69.2857 308.131H65.1835L68.602 300.409L60.3574 281.306H64.6205L70.7335 296.307L76.927 281.306H80.989Z" fill="#2C365D"/>
<path d="M0 276.852C0 276.024 0.655982 275.354 1.46518 275.354H9.64574C10.4549 275.354 11.1109 276.024 11.1109 276.852V277.837L6.39154 281.107C5.94435 281.417 5.67756 281.927 5.67756 282.471C5.67756 283.015 5.94435 283.524 6.39154 283.834L11.1109 287.105V289.637L6.39154 292.907C5.94435 293.217 5.67756 293.727 5.67756 294.271C5.67756 294.815 5.94435 295.324 6.39154 295.634L11.1109 298.905V300.077C11.1109 300.904 10.4549 301.575 9.64574 301.575H1.46518C0.655981 301.575 0 300.904 0 300.077V276.852Z" fill="#00C1FF"/>
<path d="M90.2621 301.031C88.5053 301.031 86.9713 300.625 85.6602 299.812C84.3491 298.999 83.3265 297.845 82.5923 296.351C81.8843 294.856 81.5303 293.138 81.5303 291.198C81.5303 289.231 81.8843 287.501 82.5923 286.006C83.3265 284.485 84.3491 283.318 85.6602 282.505C86.9975 281.666 88.5446 281.247 90.3015 281.247C91.5863 281.247 92.8056 281.483 93.9594 281.955C95.1131 282.401 96.0571 283.017 96.7913 283.803L96.0047 285.219C95.0083 284.38 94.0643 283.777 93.1727 283.41C92.2812 283.017 91.3372 282.82 90.3408 282.82C88.1644 282.82 86.4469 283.567 85.1882 285.062C83.9296 286.557 83.3002 288.615 83.3002 291.237C83.3002 293.807 83.9165 295.813 85.1489 297.255C86.4075 298.697 88.125 299.419 90.3015 299.419C91.2979 299.419 92.2419 299.235 93.1334 298.868C94.0512 298.501 95.0083 297.898 96.0047 297.059L96.7913 298.435C96.0309 299.248 95.0607 299.891 93.8807 300.363C92.7007 300.808 91.4945 301.031 90.2621 301.031Z" fill="#2C365D"/>
<path d="M114.087 281.719V300.756H112.474V297.177C111.871 298.409 110.993 299.366 109.839 300.048C108.711 300.703 107.427 301.031 105.984 301.031C103.782 301.031 102.104 300.415 100.95 299.183C99.8223 297.95 99.2585 296.141 99.2585 293.755V281.719H100.911V293.597C100.911 295.59 101.317 297.059 102.13 298.003C102.943 298.947 104.201 299.419 105.906 299.419C107.872 299.419 109.446 298.802 110.626 297.57C111.832 296.311 112.435 294.646 112.435 292.575V281.719H114.087Z" fill="#2C365D"/>
<path d="M124.743 301.031C121.806 301.031 119.433 300.166 117.624 298.435L118.41 297.059C119.433 297.924 120.416 298.527 121.36 298.868C122.331 299.209 123.497 299.379 124.861 299.379C126.539 299.379 127.824 299.078 128.716 298.475C129.607 297.871 130.053 297.019 130.053 295.918C130.053 295 129.764 294.266 129.188 293.715C128.611 293.165 127.68 292.732 126.395 292.417L123.17 291.67C121.675 291.329 120.482 290.713 119.59 289.821C118.725 288.904 118.292 287.855 118.292 286.675C118.292 285.049 118.909 283.738 120.141 282.741C121.374 281.745 123.039 281.247 125.136 281.247C126.474 281.247 127.706 281.47 128.834 281.915C129.961 282.361 130.879 282.991 131.587 283.803L130.8 285.219C129.961 284.433 129.083 283.856 128.165 283.489C127.247 283.095 126.238 282.899 125.136 282.899C123.589 282.899 122.37 283.213 121.478 283.843C120.613 284.472 120.18 285.337 120.18 286.439C120.18 287.409 120.443 288.182 120.967 288.759C121.518 289.31 122.37 289.73 123.524 290.018L126.788 290.805C130.171 291.591 131.862 293.256 131.862 295.8C131.862 297.373 131.22 298.645 129.935 299.615C128.65 300.559 126.919 301.031 124.743 301.031Z" fill="#2C365D"/>
<path d="M142.47 299.458C143.073 299.458 143.624 299.419 144.122 299.34L144.044 300.874C143.493 300.952 142.903 300.992 142.274 300.992C140.307 300.992 138.786 300.428 137.711 299.301C136.662 298.147 136.138 296.613 136.138 294.699V283.135H132.323V281.719H136.138V275.78H137.79V281.719H143.532V283.135H137.79V294.345C137.79 296.023 138.183 297.295 138.97 298.16C139.756 299.025 140.923 299.458 142.47 299.458Z" fill="#2C365D"/>
<path d="M152.951 301.031C151.272 301.031 149.791 300.625 148.506 299.812C147.221 298.999 146.225 297.845 145.517 296.351C144.809 294.856 144.455 293.112 144.455 291.119C144.455 289.153 144.809 287.422 145.517 285.927C146.225 284.433 147.221 283.279 148.506 282.466C149.791 281.653 151.272 281.247 152.951 281.247C154.629 281.247 156.11 281.653 157.395 282.466C158.68 283.279 159.677 284.433 160.385 285.927C161.093 287.422 161.447 289.153 161.447 291.119C161.447 293.112 161.093 294.856 160.385 296.351C159.677 297.845 158.68 298.999 157.395 299.812C156.11 300.625 154.629 301.031 152.951 301.031ZM152.911 299.419C155.088 299.419 156.753 298.711 157.907 297.295C159.087 295.852 159.677 293.794 159.677 291.119C159.677 288.523 159.073 286.504 157.867 285.062C156.687 283.594 155.048 282.859 152.951 282.859C150.853 282.859 149.201 283.594 147.995 285.062C146.815 286.504 146.225 288.523 146.225 291.119C146.225 293.794 146.802 295.852 147.955 297.295C149.135 298.711 150.787 299.419 152.911 299.419Z" fill="#2C365D"/>
<path d="M184.776 281.247C188.971 281.247 191.069 283.659 191.069 288.484V300.756H189.417V288.641C189.417 286.622 189.05 285.154 188.316 284.236C187.582 283.292 186.415 282.82 184.815 282.82C182.98 282.82 181.511 283.436 180.41 284.669C179.335 285.901 178.797 287.566 178.797 289.664V300.756H177.145V288.641C177.145 286.622 176.778 285.154 176.044 284.236C175.31 283.292 174.143 282.82 172.544 282.82C170.708 282.82 169.24 283.436 168.138 284.669C167.063 285.901 166.526 287.566 166.526 289.664V300.756H164.874V281.719H166.486V285.062C167.011 283.83 167.784 282.886 168.807 282.23C169.856 281.575 171.088 281.247 172.504 281.247C175.546 281.247 177.499 282.519 178.365 285.062C178.915 283.882 179.755 282.951 180.882 282.269C182.036 281.588 183.334 281.247 184.776 281.247Z" fill="#2C365D"/>
<path d="M211.01 291.395H196.221C196.274 293.964 196.916 295.944 198.148 297.334C199.407 298.724 201.19 299.419 203.498 299.419C204.678 299.419 205.779 299.222 206.802 298.829C207.851 298.435 208.886 297.806 209.909 296.941L210.696 298.357C209.883 299.169 208.834 299.825 207.549 300.323C206.264 300.795 204.94 301.031 203.576 301.031C200.744 301.031 198.502 300.153 196.851 298.396C195.225 296.639 194.412 294.227 194.412 291.159C194.412 289.192 194.779 287.461 195.513 285.967C196.247 284.472 197.283 283.318 198.62 282.505C199.958 281.666 201.492 281.247 203.222 281.247C205.687 281.247 207.601 282.047 208.965 283.646C210.328 285.246 211.01 287.488 211.01 290.372V291.395ZM203.222 282.781C201.23 282.781 199.617 283.41 198.384 284.669C197.178 285.901 196.47 287.632 196.261 289.861H209.437C209.385 287.579 208.821 285.836 207.746 284.629C206.671 283.397 205.163 282.781 203.222 282.781Z" fill="#2C365D"/>
<path d="M223.534 282.741L222.197 282.899C220.047 283.109 218.474 283.817 217.477 285.023C216.507 286.203 216.022 287.645 216.022 289.349V300.756H214.37V281.719H216.022V285.062C216.625 283.882 217.451 283.004 218.5 282.427C219.575 281.824 220.912 281.457 222.512 281.326L223.338 281.247L223.534 282.741Z" fill="#2C365D"/>
<path d="M38.6976 213.006C41.3251 213.006 43.269 213.662 44.5291 214.976C45.8161 216.29 46.4596 218.287 46.4596 220.969V233.114H42.5585V229.857C42.049 231.01 41.2849 231.894 40.2661 232.511C39.274 233.101 38.1077 233.396 36.7671 233.396C35.4802 233.396 34.3005 233.141 33.228 232.632C32.1555 232.095 31.311 231.358 30.6943 230.42C30.1044 229.481 29.8095 228.436 29.8095 227.283C29.8095 225.862 30.1715 224.749 30.8954 223.945C31.6461 223.114 32.866 222.524 34.5552 222.175C36.2711 221.827 38.6171 221.652 41.5932 221.652H42.5182V220.486C42.5182 218.985 42.1965 217.899 41.553 217.228C40.9364 216.558 39.9175 216.223 38.4965 216.223C36.2711 216.223 34.0458 216.907 31.8204 218.274L30.6139 215.419C31.6595 214.695 32.9197 214.118 34.3943 213.689C35.8958 213.233 37.3302 213.006 38.6976 213.006ZM37.4911 230.38C38.9657 230.38 40.1722 229.884 41.1106 228.891C42.049 227.873 42.5182 226.572 42.5182 224.99V223.945H41.7943C39.703 223.945 38.0943 224.039 36.9682 224.226C35.8421 224.414 35.0378 224.736 34.5552 225.191C34.0726 225.62 33.8313 226.251 33.8313 227.082C33.8313 228.02 34.1664 228.811 34.8367 229.455C35.5338 230.071 36.4186 230.38 37.4911 230.38Z" fill="#2C365D"/>
<path d="M27.4333 230.259C28.05 230.259 28.6533 230.219 29.2431 230.138V233.235C28.5728 233.342 27.6746 233.396 26.9507 233.396C24.4036 233.396 22.5 232.779 21.2398 231.546C20.0065 230.286 19.3898 228.476 19.3898 226.117V216.625H15.5692V213.488H19.3898V207.576H23.4518V213.488H28.841V216.625H23.4518V225.956C23.4518 228.825 24.779 230.259 27.4333 230.259Z" fill="#2C365D"/>
<path d="M48.6572 207.576H52.7192V233.114H48.6572V207.576Z" fill="#2C365D"/>
<path d="M55.0555 207.576H59.1175V233.114H55.0555V207.576Z" fill="#2C365D"/>
<path d="M80.9884 213.528L69.2851 240.354H65.1829L68.6014 232.632L60.3568 213.528H64.6199L70.733 228.53L76.9265 213.528H80.9884Z" fill="#2C365D"/>
<path d="M0 209.075C0 208.247 0.655982 207.576 1.46518 207.576H9.64574C10.4549 207.576 11.1109 208.247 11.1109 209.075V210.059L6.39154 213.33C5.94435 213.64 5.67756 214.15 5.67756 214.694C5.67756 215.238 5.94435 215.747 6.39154 216.057L11.1109 219.328V221.859L6.39154 225.13C5.94435 225.44 5.67756 225.949 5.67756 226.493C5.67756 227.037 5.94435 227.547 6.39154 227.857L11.1109 231.127V232.3C11.1109 233.127 10.4549 233.798 9.64574 233.798H1.46518C0.655981 233.798 0 233.127 0 232.3V209.075Z" fill="#B368E7"/>
<path d="M90.1832 213.47C94.536 213.47 96.7124 215.816 96.7124 220.51V232.979H95.0211V229.478C94.4442 230.684 93.6051 231.615 92.5038 232.271C91.4287 232.926 90.1963 233.254 88.8065 233.254C87.6003 233.254 86.4859 233.005 85.4633 232.507C84.4668 232.008 83.6671 231.327 83.064 230.461C82.4871 229.57 82.1987 228.6 82.1987 227.551C82.1987 226.135 82.5658 225.046 83.3 224.286C84.0604 223.499 85.2928 222.936 86.9972 222.595C88.7279 222.254 91.1403 222.083 94.2344 222.083H95.0211V220.431C95.0211 218.57 94.654 217.219 93.9198 216.38C93.1856 215.515 92.0187 215.082 90.4192 215.082C89.1868 215.082 88.0461 215.253 86.9972 215.594C85.9746 215.908 84.8995 216.433 83.772 217.167L82.9853 215.751C83.9555 215.043 85.0699 214.492 86.3286 214.099C87.6135 213.679 88.8983 213.47 90.1832 213.47ZM88.8065 231.602C89.9865 231.602 91.0485 231.327 91.9925 230.776C92.9365 230.199 93.6707 229.412 94.1951 228.416C94.7458 227.42 95.0211 226.292 95.0211 225.033V223.617H94.2738C91.5205 223.617 89.4228 223.735 87.9806 223.971C86.5384 224.181 85.5288 224.561 84.9519 225.112C84.3751 225.636 84.0866 226.423 84.0866 227.472C84.0866 228.678 84.5324 229.675 85.4239 230.461C86.3155 231.222 87.443 231.602 88.8065 231.602Z" fill="#2C365D"/>
<path d="M108.807 233.254C107.05 233.254 105.516 232.847 104.205 232.035C102.894 231.222 101.871 230.068 101.137 228.573C100.429 227.079 100.075 225.361 100.075 223.421C100.075 221.454 100.429 219.723 101.137 218.229C101.871 216.708 102.894 215.541 104.205 214.728C105.542 213.889 107.089 213.47 108.846 213.47C110.131 213.47 111.35 213.706 112.504 214.178C113.658 214.623 114.602 215.24 115.336 216.026L114.549 217.442C113.553 216.603 112.609 216 111.717 215.633C110.826 215.24 109.882 215.043 108.885 215.043C106.709 215.043 104.991 215.79 103.733 217.285C102.474 218.779 101.845 220.838 101.845 223.46C101.845 226.03 102.461 228.036 103.693 229.478C104.952 230.92 106.67 231.641 108.846 231.641C109.842 231.641 110.786 231.458 111.678 231.091C112.596 230.724 113.553 230.12 114.549 229.281L115.336 230.658C114.575 231.471 113.605 232.113 112.425 232.585C111.245 233.031 110.039 233.254 108.807 233.254Z" fill="#2C365D"/>
<path d="M133.418 213.942V240.058H131.766V229.124C131.189 230.461 130.324 231.484 129.17 232.192C128.043 232.9 126.679 233.254 125.08 233.254C123.401 233.254 121.92 232.847 120.635 232.035C119.35 231.222 118.354 230.081 117.646 228.613C116.938 227.118 116.584 225.387 116.584 223.421C116.584 221.428 116.938 219.684 117.646 218.19C118.354 216.695 119.35 215.541 120.635 214.728C121.92 213.889 123.401 213.47 125.08 213.47C126.679 213.47 128.043 213.824 129.17 214.532C130.324 215.213 131.189 216.21 131.766 217.521V213.942H133.418ZM125.119 231.641C127.243 231.641 128.882 230.92 130.035 229.478C131.189 228.036 131.766 225.99 131.766 223.342C131.766 220.694 131.189 218.661 130.035 217.246C128.882 215.803 127.23 215.082 125.08 215.082C122.982 215.082 121.33 215.816 120.124 217.285C118.944 218.753 118.354 220.799 118.354 223.421C118.354 226.017 118.944 228.036 120.124 229.478C121.33 230.92 122.995 231.641 125.119 231.641Z" fill="#2C365D"/>
<path d="M152.905 213.942V232.979H151.292V229.399C150.689 230.632 149.81 231.589 148.657 232.271C147.529 232.926 146.244 233.254 144.802 233.254C142.599 233.254 140.921 232.638 139.768 231.405C138.64 230.173 138.076 228.364 138.076 225.977V213.942H139.728V225.82C139.728 227.813 140.135 229.281 140.947 230.225C141.76 231.169 143.019 231.641 144.723 231.641C146.69 231.641 148.263 231.025 149.443 229.793C150.65 228.534 151.253 226.869 151.253 224.797V213.942H152.905Z" fill="#2C365D"/>
<path d="M157.621 232.979V213.942H159.273V232.979H157.621ZM157.189 206.154H159.706V208.632H157.189V206.154Z" fill="#2C365D"/>
<path d="M173.154 214.964L171.817 215.122C169.667 215.331 168.094 216.039 167.097 217.246C166.127 218.426 165.642 219.868 165.642 221.572V232.979H163.99V213.942H165.642V217.285C166.245 216.105 167.071 215.226 168.12 214.65C169.195 214.046 170.532 213.679 172.132 213.548L172.958 213.47L173.154 214.964Z" fill="#2C365D"/>
<path d="M189.769 223.617H174.98C175.032 226.187 175.675 228.167 176.907 229.557C178.166 230.946 179.949 231.641 182.256 231.641C183.436 231.641 184.538 231.445 185.56 231.051C186.609 230.658 187.645 230.029 188.668 229.163L189.454 230.579C188.641 231.392 187.592 232.048 186.308 232.546C185.023 233.018 183.698 233.254 182.335 233.254C179.503 233.254 177.261 232.375 175.609 230.619C173.983 228.862 173.17 226.449 173.17 223.381C173.17 221.415 173.538 219.684 174.272 218.19C175.006 216.695 176.042 215.541 177.379 214.728C178.716 213.889 180.25 213.47 181.981 213.47C184.446 213.47 186.36 214.269 187.724 215.869C189.087 217.468 189.769 219.71 189.769 222.595V223.617ZM181.981 215.004C179.988 215.004 178.375 215.633 177.143 216.892C175.937 218.124 175.229 219.855 175.019 222.083H188.196C188.143 219.802 187.579 218.058 186.504 216.852C185.429 215.62 183.921 215.004 181.981 215.004Z" fill="#2C365D"/>
</svg>
