<svg width="190" height="35" viewBox="0 205 190 37" fill="none" xmlns="http://www.w3.org/2000/svg">
<path d="M38.6976 213.006C41.3251 213.006 43.269 213.662 44.5291 214.976C45.8161 216.29 46.4596 218.287 46.4596 220.969V233.114H42.5585V229.857C42.049 231.01 41.2849 231.894 40.2661 232.511C39.274 233.101 38.1077 233.396 36.7671 233.396C35.4802 233.396 34.3005 233.141 33.228 232.632C32.1555 232.095 31.311 231.358 30.6943 230.42C30.1044 229.481 29.8095 228.436 29.8095 227.283C29.8095 225.862 30.1715 224.749 30.8954 223.945C31.6461 223.114 32.866 222.524 34.5552 222.175C36.2711 221.827 38.6171 221.652 41.5932 221.652H42.5182V220.486C42.5182 218.985 42.1965 217.899 41.553 217.228C40.9364 216.558 39.9175 216.223 38.4965 216.223C36.2711 216.223 34.0458 216.907 31.8204 218.274L30.6139 215.419C31.6595 214.695 32.9197 214.118 34.3943 213.689C35.8958 213.233 37.3302 213.006 38.6976 213.006ZM37.4911 230.38C38.9657 230.38 40.1722 229.884 41.1106 228.891C42.049 227.873 42.5182 226.572 42.5182 224.99V223.945H41.7943C39.703 223.945 38.0943 224.039 36.9682 224.226C35.8421 224.414 35.0378 224.736 34.5552 225.191C34.0726 225.62 33.8313 226.251 33.8313 227.082C33.8313 228.02 34.1664 228.811 34.8367 229.455C35.5338 230.071 36.4186 230.38 37.4911 230.38Z" fill="#2C365D"/>
<path d="M27.4333 230.259C28.05 230.259 28.6533 230.219 29.2431 230.138V233.235C28.5728 233.342 27.6746 233.396 26.9507 233.396C24.4036 233.396 22.5 232.779 21.2398 231.546C20.0065 230.286 19.3898 228.476 19.3898 226.117V216.625H15.5692V213.488H19.3898V207.576H23.4518V213.488H28.841V216.625H23.4518V225.956C23.4518 228.825 24.779 230.259 27.4333 230.259Z" fill="#2C365D"/>
<path d="M48.6572 207.576H52.7192V233.114H48.6572V207.576Z" fill="#2C365D"/>
<path d="M55.0555 207.576H59.1175V233.114H55.0555V207.576Z" fill="#2C365D"/>
<path d="M80.9884 213.528L69.2851 240.354H65.1829L68.6014 232.632L60.3568 213.528H64.6199L70.733 228.53L76.9265 213.528H80.9884Z" fill="#2C365D"/>
<path d="M0 209.075C0 208.247 0.655982 207.576 1.46518 207.576H9.64574C10.4549 207.576 11.1109 208.247 11.1109 209.075V210.059L6.39154 213.33C5.94435 213.64 5.67756 214.15 5.67756 214.694C5.67756 215.238 5.94435 215.747 6.39154 216.057L11.1109 219.328V221.859L6.39154 225.13C5.94435 225.44 5.67756 225.949 5.67756 226.493C5.67756 227.037 5.94435 227.547 6.39154 227.857L11.1109 231.127V232.3C11.1109 233.127 10.4549 233.798 9.64574 233.798H1.46518C0.655981 233.798 0 233.127 0 232.3V209.075Z" fill="#B368E7"/>
<path d="M90.1832 213.47C94.536 213.47 96.7124 215.816 96.7124 220.51V232.979H95.0211V229.478C94.4442 230.684 93.6051 231.615 92.5038 232.271C91.4287 232.926 90.1963 233.254 88.8065 233.254C87.6003 233.254 86.4859 233.005 85.4633 232.507C84.4668 232.008 83.6671 231.327 83.064 230.461C82.4871 229.57 82.1987 228.6 82.1987 227.551C82.1987 226.135 82.5658 225.046 83.3 224.286C84.0604 223.499 85.2928 222.936 86.9972 222.595C88.7279 222.254 91.1403 222.083 94.2344 222.083H95.0211V220.431C95.0211 218.57 94.654 217.219 93.9198 216.38C93.1856 215.515 92.0187 215.082 90.4192 215.082C89.1868 215.082 88.0461 215.253 86.9972 215.594C85.9746 215.908 84.8995 216.433 83.772 217.167L82.9853 215.751C83.9555 215.043 85.0699 214.492 86.3286 214.099C87.6135 213.679 88.8983 213.47 90.1832 213.47ZM88.8065 231.602C89.9865 231.602 91.0485 231.327 91.9925 230.776C92.9365 230.199 93.6707 229.412 94.1951 228.416C94.7458 227.42 95.0211 226.292 95.0211 225.033V223.617H94.2738C91.5205 223.617 89.4228 223.735 87.9806 223.971C86.5384 224.181 85.5288 224.561 84.9519 225.112C84.3751 225.636 84.0866 226.423 84.0866 227.472C84.0866 228.678 84.5324 229.675 85.4239 230.461C86.3155 231.222 87.443 231.602 88.8065 231.602Z" fill="#2C365D"/>
<path d="M108.807 233.254C107.05 233.254 105.516 232.847 104.205 232.035C102.894 231.222 101.871 230.068 101.137 228.573C100.429 227.079 100.075 225.361 100.075 223.421C100.075 221.454 100.429 219.723 101.137 218.229C101.871 216.708 102.894 215.541 104.205 214.728C105.542 213.889 107.089 213.47 108.846 213.47C110.131 213.47 111.35 213.706 112.504 214.178C113.658 214.623 114.602 215.24 115.336 216.026L114.549 217.442C113.553 216.603 112.609 216 111.717 215.633C110.826 215.24 109.882 215.043 108.885 215.043C106.709 215.043 104.991 215.79 103.733 217.285C102.474 218.779 101.845 220.838 101.845 223.46C101.845 226.03 102.461 228.036 103.693 229.478C104.952 230.92 106.67 231.641 108.846 231.641C109.842 231.641 110.786 231.458 111.678 231.091C112.596 230.724 113.553 230.12 114.549 229.281L115.336 230.658C114.575 231.471 113.605 232.113 112.425 232.585C111.245 233.031 110.039 233.254 108.807 233.254Z" fill="#2C365D"/>
<path d="M133.418 213.942V240.058H131.766V229.124C131.189 230.461 130.324 231.484 129.17 232.192C128.043 232.9 126.679 233.254 125.08 233.254C123.401 233.254 121.92 232.847 120.635 232.035C119.35 231.222 118.354 230.081 117.646 228.613C116.938 227.118 116.584 225.387 116.584 223.421C116.584 221.428 116.938 219.684 117.646 218.19C118.354 216.695 119.35 215.541 120.635 214.728C121.92 213.889 123.401 213.47 125.08 213.47C126.679 213.47 128.043 213.824 129.17 214.532C130.324 215.213 131.189 216.21 131.766 217.521V213.942H133.418ZM125.119 231.641C127.243 231.641 128.882 230.92 130.035 229.478C131.189 228.036 131.766 225.99 131.766 223.342C131.766 220.694 131.189 218.661 130.035 217.246C128.882 215.803 127.23 215.082 125.08 215.082C122.982 215.082 121.33 215.816 120.124 217.285C118.944 218.753 118.354 220.799 118.354 223.421C118.354 226.017 118.944 228.036 120.124 229.478C121.33 230.92 122.995 231.641 125.119 231.641Z" fill="#2C365D"/>
<path d="M152.905 213.942V232.979H151.292V229.399C150.689 230.632 149.81 231.589 148.657 232.271C147.529 232.926 146.244 233.254 144.802 233.254C142.599 233.254 140.921 232.638 139.768 231.405C138.64 230.173 138.076 228.364 138.076 225.977V213.942H139.728V225.82C139.728 227.813 140.135 229.281 140.947 230.225C141.76 231.169 143.019 231.641 144.723 231.641C146.69 231.641 148.263 231.025 149.443 229.793C150.65 228.534 151.253 226.869 151.253 224.797V213.942H152.905Z" fill="#2C365D"/>
<path d="M157.621 232.979V213.942H159.273V232.979H157.621ZM157.189 206.154H159.706V208.632H157.189V206.154Z" fill="#2C365D"/>
<path d="M173.154 214.964L171.817 215.122C169.667 215.331 168.094 216.039 167.097 217.246C166.127 218.426 165.642 219.868 165.642 221.572V232.979H163.99V213.942H165.642V217.285C166.245 216.105 167.071 215.226 168.12 214.65C169.195 214.046 170.532 213.679 172.132 213.548L172.958 213.47L173.154 214.964Z" fill="#2C365D"/>
<path d="M189.769 223.617H174.98C175.032 226.187 175.675 228.167 176.907 229.557C178.166 230.946 179.949 231.641 182.256 231.641C183.436 231.641 184.538 231.445 185.56 231.051C186.609 230.658 187.645 230.029 188.668 229.163L189.454 230.579C188.641 231.392 187.592 232.048 186.308 232.546C185.023 233.018 183.698 233.254 182.335 233.254C179.503 233.254 177.261 232.375 175.609 230.619C173.983 228.862 173.17 226.449 173.17 223.381C173.17 221.415 173.538 219.684 174.272 218.19C175.006 216.695 176.042 215.541 177.379 214.728C178.716 213.889 180.25 213.47 181.981 213.47C184.446 213.47 186.36 214.269 187.724 215.869C189.087 217.468 189.769 219.71 189.769 222.595V223.617ZM181.981 215.004C179.988 215.004 178.375 215.633 177.143 216.892C175.937 218.124 175.229 219.855 175.019 222.083H188.196C188.143 219.802 187.579 218.058 186.504 216.852C185.429 215.62 183.921 215.004 181.981 215.004Z" fill="#2C365D"/>
</svg>
