<svg width="224" height="35" viewBox="0 274 224 36" fill="none" xmlns="http://www.w3.org/2000/svg">
<path d="M38.6976 280.783C41.3252 280.783 43.269 281.44 44.5292 282.753C45.8161 284.067 46.4596 286.065 46.4596 288.746V300.892H42.5585V297.634C42.0491 298.787 41.285 299.672 40.2661 300.288C39.2741 300.878 38.1078 301.173 36.7672 301.173C35.4802 301.173 34.3005 300.918 33.2281 300.409C32.1556 299.873 31.311 299.135 30.6944 298.197C30.1045 297.259 29.8096 296.213 29.8096 295.06C29.8096 293.639 30.1715 292.526 30.8954 291.722C31.6462 290.891 32.8661 290.301 34.5552 289.952C36.2712 289.604 38.6172 289.43 41.5933 289.43H42.5183V288.263C42.5183 286.762 42.1966 285.676 41.5531 285.006C40.9364 284.335 39.9176 284 38.4966 284C36.2712 284 34.0458 284.684 31.8204 286.051L30.6139 283.196C31.6596 282.472 32.9197 281.896 34.3944 281.467C35.8958 281.011 37.3302 280.783 38.6976 280.783ZM37.4911 298.157C38.9658 298.157 40.1723 297.661 41.1107 296.669C42.0491 295.65 42.5183 294.35 42.5183 292.768V291.722H41.7944C39.7031 291.722 38.0944 291.816 36.9683 292.004C35.8422 292.191 35.0378 292.513 34.5552 292.969C34.0726 293.398 33.8313 294.028 33.8313 294.859C33.8313 295.797 34.1665 296.588 34.8368 297.232C35.5339 297.848 36.4186 298.157 37.4911 298.157Z" fill="#2C365D"/>
<path d="M27.4335 298.036C28.0502 298.036 28.6534 297.996 29.2433 297.916V301.012C28.573 301.12 27.6748 301.173 26.9509 301.173C24.4038 301.173 22.5002 300.557 21.24 299.323C20.0067 298.063 19.39 296.253 19.39 293.894V284.402H15.5693V281.265H19.39V275.354H23.452V281.265H28.8411V284.402H23.452V293.733C23.452 296.602 24.7791 298.036 27.4335 298.036Z" fill="#2C365D"/>
<path d="M48.6572 275.354H52.7192V300.892H48.6572V275.354Z" fill="#2C365D"/>
<path d="M55.0557 275.354H59.1176V300.892H55.0557V275.354Z" fill="#2C365D"/>
<path d="M80.989 281.306L69.2857 308.131H65.1835L68.602 300.409L60.3574 281.306H64.6205L70.7335 296.307L76.927 281.306H80.989Z" fill="#2C365D"/>
<path d="M0 276.852C0 276.024 0.655982 275.354 1.46518 275.354H9.64574C10.4549 275.354 11.1109 276.024 11.1109 276.852V277.837L6.39154 281.107C5.94435 281.417 5.67756 281.927 5.67756 282.471C5.67756 283.015 5.94435 283.524 6.39154 283.834L11.1109 287.105V289.637L6.39154 292.907C5.94435 293.217 5.67756 293.727 5.67756 294.271C5.67756 294.815 5.94435 295.324 6.39154 295.634L11.1109 298.905V300.077C11.1109 300.904 10.4549 301.575 9.64574 301.575H1.46518C0.655981 301.575 0 300.904 0 300.077V276.852Z" fill="#00C1FF"/>
<path d="M90.2621 301.031C88.5053 301.031 86.9713 300.625 85.6602 299.812C84.3491 298.999 83.3265 297.845 82.5923 296.351C81.8843 294.856 81.5303 293.138 81.5303 291.198C81.5303 289.231 81.8843 287.501 82.5923 286.006C83.3265 284.485 84.3491 283.318 85.6602 282.505C86.9975 281.666 88.5446 281.247 90.3015 281.247C91.5863 281.247 92.8056 281.483 93.9594 281.955C95.1131 282.401 96.0571 283.017 96.7913 283.803L96.0047 285.219C95.0083 284.38 94.0643 283.777 93.1727 283.41C92.2812 283.017 91.3372 282.82 90.3408 282.82C88.1644 282.82 86.4469 283.567 85.1882 285.062C83.9296 286.557 83.3002 288.615 83.3002 291.237C83.3002 293.807 83.9165 295.813 85.1489 297.255C86.4075 298.697 88.125 299.419 90.3015 299.419C91.2979 299.419 92.2419 299.235 93.1334 298.868C94.0512 298.501 95.0083 297.898 96.0047 297.059L96.7913 298.435C96.0309 299.248 95.0607 299.891 93.8807 300.363C92.7007 300.808 91.4945 301.031 90.2621 301.031Z" fill="#2C365D"/>
<path d="M114.087 281.719V300.756H112.474V297.177C111.871 298.409 110.993 299.366 109.839 300.048C108.711 300.703 107.427 301.031 105.984 301.031C103.782 301.031 102.104 300.415 100.95 299.183C99.8223 297.95 99.2585 296.141 99.2585 293.755V281.719H100.911V293.597C100.911 295.59 101.317 297.059 102.13 298.003C102.943 298.947 104.201 299.419 105.906 299.419C107.872 299.419 109.446 298.802 110.626 297.57C111.832 296.311 112.435 294.646 112.435 292.575V281.719H114.087Z" fill="#2C365D"/>
<path d="M124.743 301.031C121.806 301.031 119.433 300.166 117.624 298.435L118.41 297.059C119.433 297.924 120.416 298.527 121.36 298.868C122.331 299.209 123.497 299.379 124.861 299.379C126.539 299.379 127.824 299.078 128.716 298.475C129.607 297.871 130.053 297.019 130.053 295.918C130.053 295 129.764 294.266 129.188 293.715C128.611 293.165 127.68 292.732 126.395 292.417L123.17 291.67C121.675 291.329 120.482 290.713 119.59 289.821C118.725 288.904 118.292 287.855 118.292 286.675C118.292 285.049 118.909 283.738 120.141 282.741C121.374 281.745 123.039 281.247 125.136 281.247C126.474 281.247 127.706 281.47 128.834 281.915C129.961 282.361 130.879 282.991 131.587 283.803L130.8 285.219C129.961 284.433 129.083 283.856 128.165 283.489C127.247 283.095 126.238 282.899 125.136 282.899C123.589 282.899 122.37 283.213 121.478 283.843C120.613 284.472 120.18 285.337 120.18 286.439C120.18 287.409 120.443 288.182 120.967 288.759C121.518 289.31 122.37 289.73 123.524 290.018L126.788 290.805C130.171 291.591 131.862 293.256 131.862 295.8C131.862 297.373 131.22 298.645 129.935 299.615C128.65 300.559 126.919 301.031 124.743 301.031Z" fill="#2C365D"/>
<path d="M142.47 299.458C143.073 299.458 143.624 299.419 144.122 299.34L144.044 300.874C143.493 300.952 142.903 300.992 142.274 300.992C140.307 300.992 138.786 300.428 137.711 299.301C136.662 298.147 136.138 296.613 136.138 294.699V283.135H132.323V281.719H136.138V275.78H137.79V281.719H143.532V283.135H137.79V294.345C137.79 296.023 138.183 297.295 138.97 298.16C139.756 299.025 140.923 299.458 142.47 299.458Z" fill="#2C365D"/>
<path d="M152.951 301.031C151.272 301.031 149.791 300.625 148.506 299.812C147.221 298.999 146.225 297.845 145.517 296.351C144.809 294.856 144.455 293.112 144.455 291.119C144.455 289.153 144.809 287.422 145.517 285.927C146.225 284.433 147.221 283.279 148.506 282.466C149.791 281.653 151.272 281.247 152.951 281.247C154.629 281.247 156.11 281.653 157.395 282.466C158.68 283.279 159.677 284.433 160.385 285.927C161.093 287.422 161.447 289.153 161.447 291.119C161.447 293.112 161.093 294.856 160.385 296.351C159.677 297.845 158.68 298.999 157.395 299.812C156.11 300.625 154.629 301.031 152.951 301.031ZM152.911 299.419C155.088 299.419 156.753 298.711 157.907 297.295C159.087 295.852 159.677 293.794 159.677 291.119C159.677 288.523 159.073 286.504 157.867 285.062C156.687 283.594 155.048 282.859 152.951 282.859C150.853 282.859 149.201 283.594 147.995 285.062C146.815 286.504 146.225 288.523 146.225 291.119C146.225 293.794 146.802 295.852 147.955 297.295C149.135 298.711 150.787 299.419 152.911 299.419Z" fill="#2C365D"/>
<path d="M184.776 281.247C188.971 281.247 191.069 283.659 191.069 288.484V300.756H189.417V288.641C189.417 286.622 189.05 285.154 188.316 284.236C187.582 283.292 186.415 282.82 184.815 282.82C182.98 282.82 181.511 283.436 180.41 284.669C179.335 285.901 178.797 287.566 178.797 289.664V300.756H177.145V288.641C177.145 286.622 176.778 285.154 176.044 284.236C175.31 283.292 174.143 282.82 172.544 282.82C170.708 282.82 169.24 283.436 168.138 284.669C167.063 285.901 166.526 287.566 166.526 289.664V300.756H164.874V281.719H166.486V285.062C167.011 283.83 167.784 282.886 168.807 282.23C169.856 281.575 171.088 281.247 172.504 281.247C175.546 281.247 177.499 282.519 178.365 285.062C178.915 283.882 179.755 282.951 180.882 282.269C182.036 281.588 183.334 281.247 184.776 281.247Z" fill="#2C365D"/>
<path d="M211.01 291.395H196.221C196.274 293.964 196.916 295.944 198.148 297.334C199.407 298.724 201.19 299.419 203.498 299.419C204.678 299.419 205.779 299.222 206.802 298.829C207.851 298.435 208.886 297.806 209.909 296.941L210.696 298.357C209.883 299.169 208.834 299.825 207.549 300.323C206.264 300.795 204.94 301.031 203.576 301.031C200.744 301.031 198.502 300.153 196.851 298.396C195.225 296.639 194.412 294.227 194.412 291.159C194.412 289.192 194.779 287.461 195.513 285.967C196.247 284.472 197.283 283.318 198.62 282.505C199.958 281.666 201.492 281.247 203.222 281.247C205.687 281.247 207.601 282.047 208.965 283.646C210.328 285.246 211.01 287.488 211.01 290.372V291.395ZM203.222 282.781C201.23 282.781 199.617 283.41 198.384 284.669C197.178 285.901 196.47 287.632 196.261 289.861H209.437C209.385 287.579 208.821 285.836 207.746 284.629C206.671 283.397 205.163 282.781 203.222 282.781Z" fill="#2C365D"/>
<path d="M223.534 282.741L222.197 282.899C220.047 283.109 218.474 283.817 217.477 285.023C216.507 286.203 216.022 287.645 216.022 289.349V300.756H214.37V281.719H216.022V285.062C216.625 283.882 217.451 283.004 218.5 282.427C219.575 281.824 220.912 281.457 222.512 281.326L223.338 281.247L223.534 282.741Z" fill="#2C365D"/>
</svg>
