<svg width="166" height="35" viewBox="0 -1 166 36" fill="none" xmlns="http://www.w3.org/2000/svg">
<path d="M38.6976 6.11761C41.3252 6.11761 43.269 6.7745 44.5292 8.08827C45.8161 9.40205 46.4596 11.3995 46.4596 14.0807V26.2264H42.5585V22.9688C42.0491 24.1217 41.285 25.0064 40.2661 25.6231C39.2741 26.213 38.1078 26.5079 36.7672 26.5079C35.4802 26.5079 34.3005 26.2532 33.2281 25.7438C32.1556 25.2075 31.311 24.4702 30.6944 23.5318C30.1045 22.5934 29.8096 21.5477 29.8096 20.3948C29.8096 18.9738 30.1715 17.8611 30.8954 17.0568C31.6462 16.2256 32.8661 15.6358 34.5552 15.2872C36.2712 14.9387 38.6172 14.7644 41.5933 14.7644H42.5183V13.5981C42.5183 12.0966 42.1966 11.0107 41.5531 10.3405C40.9364 9.67016 39.9176 9.33502 38.4966 9.33502C36.2712 9.33502 34.0458 10.0187 31.8204 11.3861L30.6139 8.53067C31.6596 7.80675 32.9197 7.2303 34.3944 6.80131C35.8958 6.34551 37.3302 6.11761 38.6976 6.11761ZM37.4911 23.4916C38.9658 23.4916 40.1723 22.9956 41.1107 22.0035C42.0491 20.9847 42.5183 19.6843 42.5183 18.1024V17.0568H41.7944C39.7031 17.0568 38.0944 17.1506 36.9683 17.3383C35.8422 17.526 35.0378 17.8477 34.5552 18.3035C34.0726 18.7325 33.8313 19.3626 33.8313 20.1938C33.8313 21.1322 34.1665 21.9231 34.8368 22.5666C35.5339 23.1833 36.4186 23.4916 37.4911 23.4916Z" fill="#2C365D"/>
<path d="M27.4335 23.371C28.0502 23.371 28.6534 23.3308 29.2433 23.2503V26.3471C28.573 26.4543 27.6748 26.508 26.9509 26.508C24.4038 26.508 22.5002 25.8913 21.24 24.6579C20.0067 23.3978 19.39 21.588 19.39 19.2286V9.73724H15.5693V6.60027H19.39V0.688293H23.452V6.60027H28.8411V9.73724H23.452V19.0677C23.452 21.9366 24.7791 23.371 27.4335 23.371Z" fill="#2C365D"/>
<path d="M48.6572 0.688293H52.7192V26.2264H48.6572V0.688293Z" fill="#2C365D"/>
<path d="M55.0557 0.688293H59.1176V26.2264H55.0557V0.688293Z" fill="#2C365D"/>
<path d="M80.989 6.64044L69.2857 33.4655H65.1835L68.602 25.7438L60.3574 6.64044H64.6205L70.7335 21.6416L76.927 6.64044H80.989Z" fill="#2C365D"/>
<path d="M0 2.18668C0 1.35914 0.655982 0.688293 1.46518 0.688293H9.64574C10.4549 0.688293 11.1109 1.35914 11.1109 2.18668V3.17153L6.39154 6.44215C5.94435 6.75206 5.67756 7.26155 5.67756 7.80563C5.67756 8.34971 5.94435 8.8592 6.39154 9.16911L11.1109 12.4397V14.9713L6.39154 18.2419C5.94435 18.5519 5.67756 19.0613 5.67756 19.6054C5.67756 20.1495 5.94435 20.659 6.39154 20.9689L11.1109 24.2395V25.4117C11.1109 26.2392 10.4549 26.9101 9.64574 26.9101H1.46518C0.655981 26.9101 0 26.2392 0 25.4117V2.18668Z" fill="#FFD41E"/>
<path d="M91.1666 7.40109C92.8448 7.40109 94.3264 7.80753 95.6112 8.6204C96.8961 9.43328 97.8925 10.5739 98.6005 12.0423C99.3085 13.5108 99.6625 15.2283 99.6625 17.1949C99.6625 19.1878 99.3085 20.9446 98.6005 22.4655C97.8925 23.9601 96.8961 25.127 95.6112 25.9661C94.3264 26.779 92.8448 27.1854 91.1666 27.1854C89.5671 27.1854 88.1905 26.8314 87.0367 26.1234C85.9092 25.4154 85.057 24.3928 84.4801 23.0555V26.9101H82.8281V0H84.4801V11.4917C85.057 10.1806 85.9092 9.17106 87.0367 8.46307C88.1905 7.75509 89.5671 7.40109 91.1666 7.40109ZM91.1666 25.5728C93.2644 25.5728 94.9032 24.8386 96.0832 23.3701C97.2632 21.9017 97.8532 19.8433 97.8532 17.1949C97.8532 14.599 97.2632 12.593 96.0832 11.177C94.9032 9.73483 93.2513 9.01373 91.1273 9.01373C89.0034 9.01373 87.3645 9.73483 86.2107 11.177C85.057 12.6192 84.4801 14.6514 84.4801 17.2736C84.4801 19.922 85.057 21.9673 86.2107 23.4095C87.3645 24.8517 89.0165 25.5728 91.1666 25.5728Z" fill="#2C365D"/>
<path d="M103.101 26.9101V7.87308H104.753V26.9101H103.101ZM102.669 0H105.186V2.56318H102.669V0Z" fill="#2C365D"/>
<path d="M109.47 26.9101V0H111.122V26.9101H109.47Z" fill="#2C365D"/>
<path d="M115.838 26.9101V0H117.49V26.9101H115.838Z" fill="#2C365D"/>
<path d="M122.207 26.9101V7.87308H123.859V26.9101H122.207ZM121.774 0H124.291V2.56318H121.774V0Z" fill="#2C365D"/>
<path d="M136.796 7.40109C141.411 7.40109 143.718 9.81349 143.718 14.6383V26.9101H142.066V14.7956C142.066 12.7766 141.66 11.3081 140.847 10.3904C140.034 9.44639 138.723 8.9744 136.914 8.9744C134.895 8.9744 133.269 9.60372 132.037 10.8624C130.83 12.0948 130.227 13.7468 130.227 15.8183V26.9101H128.575V7.87308H130.188V11.295C130.765 10.0364 131.63 9.07929 132.784 8.42374C133.964 7.74198 135.301 7.40109 136.796 7.40109Z" fill="#2C365D"/>
<path d="M164.043 7.87308V26.0054C164.043 28.7325 163.401 30.7909 162.116 32.1807C160.831 33.5704 158.917 34.2653 156.373 34.2653C153.2 34.2653 150.513 33.3606 148.31 31.5513L149.097 30.1747C150.408 31.1187 151.588 31.7611 152.636 32.102C153.685 32.4691 154.944 32.6526 156.412 32.6526C158.379 32.6526 159.874 32.102 160.896 31.0007C161.919 29.9256 162.43 28.3392 162.43 26.2414V22.1115C161.88 23.475 161.014 24.5239 159.834 25.2581C158.681 25.9661 157.278 26.3201 155.626 26.3201C153.948 26.3201 152.453 25.9268 151.142 25.1401C149.857 24.3535 148.847 23.239 148.113 21.7968C147.405 20.3546 147.051 18.7027 147.051 16.8409C147.051 14.9792 147.405 13.3403 148.113 11.9243C148.847 10.4822 149.857 9.36773 151.142 8.58107C152.453 7.79442 153.948 7.40109 155.626 7.40109C157.252 7.40109 158.641 7.75509 159.795 8.46307C160.949 9.17106 161.814 10.1806 162.391 11.4917V7.87308H164.043ZM155.626 24.7075C157.75 24.7075 159.402 24.0126 160.582 22.6228C161.788 21.2069 162.391 19.2796 162.391 16.8409C162.391 14.4023 161.788 12.4881 160.582 11.0984C159.402 9.70861 157.75 9.01373 155.626 9.01373C153.528 9.01373 151.863 9.70861 150.631 11.0984C149.424 12.4881 148.821 14.4023 148.821 16.8409C148.821 19.3058 149.424 21.2331 150.631 22.6228C151.863 24.0126 153.528 24.7075 155.626 24.7075Z" fill="#2C365D"/>
</svg>
