<svg width="212" height="35" viewBox="0 136 212 36" fill="none" xmlns="http://www.w3.org/2000/svg">
<path d="M38.6976 143.806C41.3252 143.806 43.269 144.463 44.5292 145.776C45.8161 147.09 46.4596 149.088 46.4596 151.769V163.915H42.5585V160.657C42.0491 161.81 41.285 162.695 40.2661 163.311C39.2741 163.901 38.1078 164.196 36.7672 164.196C35.4802 164.196 34.3005 163.941 33.2281 163.432C32.1556 162.896 31.311 162.158 30.6944 161.22C30.1045 160.282 29.8096 159.236 29.8096 158.083C29.8096 156.662 30.1715 155.549 30.8954 154.745C31.6462 153.914 32.8661 153.324 34.5552 152.975C36.2712 152.627 38.6172 152.453 41.5933 152.453H42.5183V151.286C42.5183 149.785 42.1966 148.699 41.5531 148.029C40.9364 147.358 39.9176 147.023 38.4966 147.023C36.2712 147.023 34.0458 147.707 31.8204 149.074L30.6139 146.219C31.6596 145.495 32.9197 144.919 34.3944 144.49C35.8958 144.034 37.3302 143.806 38.6976 143.806ZM37.4911 161.18C38.9658 161.18 40.1723 160.684 41.1107 159.692C42.0491 158.673 42.5183 157.373 42.5183 155.791V154.745H41.7944C39.7031 154.745 38.0944 154.839 36.9683 155.027C35.8422 155.214 35.0378 155.536 34.5552 155.992C34.0726 156.421 33.8313 157.051 33.8313 157.882C33.8313 158.82 34.1665 159.611 34.8368 160.255C35.5339 160.871 36.4186 161.18 37.4911 161.18Z" fill="#2C365D"/>
<path d="M27.4335 161.059C28.0502 161.059 28.6534 161.019 29.2433 160.939V164.035C28.573 164.143 27.6748 164.196 26.9509 164.196C24.4038 164.196 22.5002 163.579 21.24 162.346C20.0067 161.086 19.39 159.276 19.39 156.917V147.425H15.5693V144.288H19.39V138.376H23.452V144.288H28.8411V147.425H23.452V156.756C23.452 159.625 24.7792 161.059 27.4335 161.059Z" fill="#2C365D"/>
<path d="M48.6572 138.376H52.7192V163.915H48.6572V138.376Z" fill="#2C365D"/>
<path d="M55.0557 138.376H59.1176V163.915H55.0557V138.376Z" fill="#2C365D"/>
<path d="M80.989 144.329L69.2857 171.154H65.1835L68.602 163.432L60.3574 144.329H64.6205L70.7335 159.33L76.927 144.329H80.989Z" fill="#2C365D"/>
<path d="M0 139.875C0 139.047 0.655982 138.376 1.46518 138.376H9.64574C10.4549 138.376 11.1109 139.047 11.1109 139.875V140.86L6.39154 144.13C5.94435 144.44 5.67756 144.95 5.67756 145.494V145.494C5.67756 146.038 5.94435 146.547 6.39154 146.857L11.1109 150.128V152.66L6.39154 155.93C5.94435 156.24 5.67756 156.75 5.67756 157.294V157.294C5.67756 157.838 5.94435 158.347 6.39154 158.657L11.1109 161.928V163.1C11.1109 163.927 10.4549 164.598 9.64574 164.598H1.46518C0.655981 164.598 0 163.927 0 163.1V139.875Z" fill="#C1EE41"/>
<path d="M90.1828 144.27C94.5356 144.27 96.712 146.617 96.712 151.31V163.779H95.0207V160.278C94.4438 161.484 93.6047 162.415 92.5034 163.071C91.4283 163.726 90.1959 164.054 88.8061 164.054C87.5999 164.054 86.4855 163.805 85.4629 163.307C84.4664 162.809 83.6667 162.127 83.0636 161.262C82.4867 160.37 82.1982 159.4 82.1982 158.351C82.1982 156.935 82.5653 155.847 83.2996 155.086C84.06 154.3 85.2924 153.736 86.9968 153.395C88.7275 153.054 91.1399 152.884 94.234 152.884H95.0207V151.232C95.0207 149.37 94.6536 148.02 93.9194 147.18C93.1852 146.315 92.0183 145.882 90.4188 145.882C89.1863 145.882 88.0457 146.053 86.9968 146.394C85.9742 146.708 84.8991 147.233 83.7715 147.967L82.9849 146.551C83.9551 145.843 85.0695 145.292 86.3282 144.899C87.613 144.48 88.8979 144.27 90.1828 144.27ZM88.8061 162.402C89.9861 162.402 91.0481 162.127 91.9921 161.576C92.9361 160.999 93.6703 160.213 94.1947 159.216C94.7454 158.22 95.0207 157.092 95.0207 155.834V154.418H94.2734C91.5201 154.418 89.4223 154.536 87.9801 154.772C86.5379 154.981 85.5284 155.362 84.9515 155.912C84.3746 156.437 84.0862 157.223 84.0862 158.272C84.0862 159.478 84.532 160.475 85.4235 161.262C86.3151 162.022 87.4426 162.402 88.8061 162.402Z" fill="#2C365D"/>
<path d="M108.773 144.27C113.388 144.27 115.696 146.682 115.696 151.507V163.779H114.044V151.664C114.044 149.645 113.638 148.177 112.825 147.259C112.012 146.315 110.701 145.843 108.891 145.843C106.872 145.843 105.247 146.472 104.014 147.731C102.808 148.964 102.205 150.616 102.205 152.687V163.779H100.553V144.742H102.165V148.164C102.742 146.905 103.608 145.948 104.761 145.292C105.941 144.611 107.279 144.27 108.773 144.27Z" fill="#2C365D"/>
<path d="M126.863 144.27C131.215 144.27 133.392 146.617 133.392 151.31V163.779H131.7V160.278C131.124 161.484 130.284 162.415 129.183 163.071C128.108 163.726 126.876 164.054 125.486 164.054C124.28 164.054 123.165 163.805 122.143 163.307C121.146 162.809 120.346 162.127 119.743 161.262C119.166 160.37 118.878 159.4 118.878 158.351C118.878 156.935 119.245 155.847 119.979 155.086C120.74 154.3 121.972 153.736 123.677 153.395C125.407 153.054 127.82 152.884 130.914 152.884H131.7V151.232C131.7 149.37 131.333 148.02 130.599 147.18C129.865 146.315 128.698 145.882 127.099 145.882C125.866 145.882 124.725 146.053 123.677 146.394C122.654 146.708 121.579 147.233 120.451 147.967L119.665 146.551C120.635 145.843 121.749 145.292 123.008 144.899C124.293 144.48 125.578 144.27 126.863 144.27ZM125.486 162.402C126.666 162.402 127.728 162.127 128.672 161.576C129.616 160.999 130.35 160.213 130.874 159.216C131.425 158.22 131.7 157.092 131.7 155.834V154.418H130.953C128.2 154.418 126.102 154.536 124.66 154.772C123.218 154.981 122.208 155.362 121.631 155.912C121.054 156.437 120.766 157.223 120.766 158.272C120.766 159.478 121.212 160.475 122.103 161.262C122.995 162.022 124.122 162.402 125.486 162.402Z" fill="#2C365D"/>
<path d="M138.052 163.779V137.688H139.704V163.779H138.052Z" fill="#2C365D"/>
<path d="M158.305 144.742H160.036L148.865 170.859H147.174L150.124 163.975L141.943 144.742H143.713L150.989 162.324L158.305 144.742Z" fill="#2C365D"/>
<path d="M171.378 162.481C171.981 162.481 172.531 162.442 173.03 162.363L172.951 163.897C172.4 163.975 171.81 164.015 171.181 164.015C169.214 164.015 167.693 163.451 166.618 162.324C165.57 161.17 165.045 159.636 165.045 157.722V146.158H161.23V144.742H165.045V137.688H166.697V144.742H172.44V146.158H166.697V157.368C166.697 159.046 167.09 160.318 167.877 161.183C168.664 162.048 169.831 162.481 171.378 162.481Z" fill="#2C365D"/>
<path d="M175.479 163.779V144.742H177.131V163.779H175.479ZM175.047 137.688H177.564V140.251H175.047V137.688Z" fill="#2C365D"/>
<path d="M189.282 164.054C187.525 164.054 185.991 163.648 184.68 162.835C183.369 162.022 182.346 160.868 181.612 159.374C180.904 157.879 180.55 156.161 180.55 154.221C180.55 152.254 180.904 150.524 181.612 149.029C182.346 147.508 183.369 146.341 184.68 145.528C186.017 144.689 187.564 144.27 189.321 144.27C190.606 144.27 191.825 144.506 192.979 144.978C194.133 145.424 195.077 146.04 195.811 146.826L195.024 148.242C194.028 147.403 193.084 146.8 192.192 146.433C191.301 146.04 190.357 145.843 189.361 145.843C187.184 145.843 185.467 146.59 184.208 148.085C182.949 149.58 182.32 151.638 182.32 154.26C182.32 156.83 182.936 158.836 184.169 160.278C185.427 161.72 187.145 162.442 189.321 162.442C190.318 162.442 191.262 162.258 192.153 161.891C193.071 161.524 194.028 160.921 195.024 160.082L195.811 161.458C195.051 162.271 194.08 162.914 192.9 163.385C191.721 163.831 190.514 164.054 189.282 164.054Z" fill="#2C365D"/>
<path d="M204.296 164.054C201.359 164.054 198.986 163.189 197.177 161.458L197.964 160.082C198.986 160.947 199.97 161.55 200.914 161.891C201.884 162.232 203.051 162.402 204.414 162.402C206.092 162.402 207.377 162.101 208.269 161.498C209.16 160.894 209.606 160.042 209.606 158.941C209.606 158.023 209.318 157.289 208.741 156.738C208.164 156.188 207.233 155.755 205.948 155.44L202.723 154.693C201.228 154.352 200.035 153.736 199.144 152.844C198.278 151.927 197.846 150.878 197.846 149.698C197.846 148.072 198.462 146.761 199.694 145.764C200.927 144.768 202.592 144.27 204.69 144.27C206.027 144.27 207.259 144.493 208.387 144.938C209.514 145.384 210.432 146.014 211.14 146.826L210.353 148.242C209.514 147.456 208.636 146.879 207.718 146.512C206.8 146.118 205.791 145.922 204.69 145.922C203.142 145.922 201.923 146.236 201.032 146.866C200.166 147.495 199.734 148.36 199.734 149.462C199.734 150.432 199.996 151.205 200.52 151.782C201.071 152.333 201.923 152.753 203.077 153.041L206.341 153.828C209.724 154.614 211.415 156.279 211.415 158.823C211.415 160.396 210.773 161.668 209.488 162.638C208.203 163.582 206.473 164.054 204.296 164.054Z" fill="#2C365D"/>
</svg>
