<svg width="227" height="101" viewBox="0 0 227 101" fill="none" xmlns="http://www.w3.org/2000/svg">
<g filter="url(#filter0_dd_3656_1939)">
<path d="M7.18188 47.9394C7.18188 24.1075 26.5015 4.78787 50.3334 4.78787H176.471C200.303 4.78787 219.623 24.1075 219.623 47.9394C219.623 71.7713 200.303 91.0909 176.471 91.0909H50.3333C26.5014 91.0909 7.18188 71.7713 7.18188 47.9394Z" fill="#181D27"/>
<g clip-path="url(#clip0_3656_1939)">
<rect x="35.9092" y="23.9987" width="47.8814" height="47.8814" rx="23.9407" fill="#FE5E01"/>
<rect x="64.3391" y="23.9988" width="19.4518" height="47.8814" fill="#983901"/>
<path d="M56.4832 26.7349C56.4832 25.2238 57.6987 23.9988 59.1982 23.9988L77.0722 23.9989C77.0722 23.9989 77.0722 26.5909 77.0722 28.5333L67.0039 35.409L67.0039 38.5815L77.0722 45.4572L77.0722 50.0799L67.0039 56.9556L67.0039 60.1281L77.0722 67.0038L77.0722 71.8803L59.1982 71.8803C57.6987 71.8803 56.4831 70.6553 56.4831 69.1442L56.4832 26.7349Z" fill="#B24301"/>
<path d="M46.1963 26.7349C46.1963 25.2238 47.4119 23.9988 48.9113 23.9988L66.7853 23.9989C66.7853 23.9989 66.7853 26.5909 66.7853 28.5333L56.717 35.409L56.717 38.5815L66.7853 45.4572L66.7853 50.0799L56.717 56.9556L56.717 60.1281L66.7853 67.0038L66.7853 71.8803L48.9113 71.8803C47.4118 71.8803 46.1963 70.6553 46.1963 69.1442L46.1963 26.7349Z" fill="#CC4C00"/>
<path d="M35.9092 26.7347C35.9092 25.2236 37.1247 23.9987 38.6242 23.9987L56.4982 23.9987C56.4982 23.9987 56.4982 26.5907 56.4982 28.5331L46.4299 35.4088L46.4299 38.5813L56.4982 45.457L56.4982 50.0797L46.4299 56.9555L46.4299 60.1279L56.4982 67.0036L56.4982 71.8801L38.6242 71.8801C37.1247 71.8801 35.9092 70.6551 35.9092 69.144L35.9092 26.7347Z" fill="#FF5E00"/>
</g>
<path d="M98.9005 59.9394H94.1874L102.769 35.5647H108.22L116.813 59.9394H112.099L105.589 40.5634H105.399L98.9005 59.9394ZM99.0552 50.3823H111.909V53.929H99.0552V50.3823ZM126.06 60.2607C124.624 60.2607 123.339 59.8918 122.204 59.1539C121.069 58.416 120.173 57.3448 119.514 55.9404C118.856 54.536 118.526 52.8301 118.526 50.8227C118.526 48.7915 118.86 47.0776 119.526 45.6812C120.201 44.2768 121.109 43.2175 122.252 42.5034C123.394 41.7814 124.668 41.4204 126.072 41.4204C127.143 41.4204 128.024 41.6029 128.714 41.9678C129.404 42.3249 129.952 42.7573 130.357 43.2651C130.761 43.765 131.075 44.2371 131.297 44.6814H131.475V35.5647H135.796V59.9394H131.559V57.0592H131.297C131.075 57.5035 130.753 57.9756 130.333 58.4755C129.912 58.9674 129.357 59.3879 128.667 59.737C127.976 60.0862 127.107 60.2607 126.06 60.2607ZM127.262 56.7259C128.175 56.7259 128.952 56.4799 129.595 55.988C130.238 55.4881 130.726 54.7939 131.059 53.9052C131.392 53.0166 131.559 51.9811 131.559 50.7989C131.559 49.6166 131.392 48.5891 131.059 47.7163C130.734 46.8436 130.25 46.1652 129.607 45.6812C128.972 45.1972 128.191 44.9552 127.262 44.9552C126.302 44.9552 125.501 45.2051 124.858 45.705C124.215 46.2048 123.731 46.8951 123.406 47.7759C123.081 48.6566 122.918 49.6643 122.918 50.7989C122.918 51.9414 123.081 52.961 123.406 53.8576C123.739 54.7463 124.227 55.4485 124.87 55.9642C125.521 56.472 126.318 56.7259 127.262 56.7259ZM148.361 60.2964C146.576 60.2964 145.028 59.9037 143.719 59.1182C142.41 58.3326 141.394 57.2337 140.672 55.8214C139.958 54.4091 139.601 52.7587 139.601 50.8703C139.601 48.9819 139.958 47.3276 140.672 45.9073C141.394 44.487 142.41 43.3841 143.719 42.5986C145.028 41.8131 146.576 41.4204 148.361 41.4204C150.146 41.4204 151.693 41.8131 153.003 42.5986C154.312 43.3841 155.323 44.487 156.037 45.9073C156.759 47.3276 157.121 48.9819 157.121 50.8703C157.121 52.7587 156.759 54.4091 156.037 55.8214C155.323 57.2337 154.312 58.3326 153.003 59.1182C151.693 59.9037 150.146 60.2964 148.361 60.2964ZM148.385 56.8449C149.353 56.8449 150.162 56.5791 150.813 56.0475C151.463 55.508 151.947 54.7859 152.265 53.8814C152.59 52.9769 152.753 51.9692 152.753 50.8584C152.753 49.7396 152.59 48.728 152.265 47.8235C151.947 46.911 151.463 46.185 150.813 45.6455C150.162 45.1059 149.353 44.8361 148.385 44.8361C147.393 44.8361 146.568 45.1059 145.909 45.6455C145.259 46.185 144.771 46.911 144.445 47.8235C144.128 48.728 143.969 49.7396 143.969 50.8584C143.969 51.9692 144.128 52.9769 144.445 53.8814C144.771 54.7859 145.259 55.508 145.909 56.0475C146.568 56.5791 147.393 56.8449 148.385 56.8449ZM160.777 59.9394V41.6584H164.955V44.7052H165.145C165.478 43.6499 166.05 42.8367 166.859 42.2654C167.676 41.6862 168.609 41.3966 169.656 41.3966C169.894 41.3966 170.16 41.4085 170.453 41.4323C170.755 41.4481 171.005 41.4759 171.203 41.5156V45.4788C171.021 45.4154 170.731 45.3598 170.334 45.3122C169.946 45.2567 169.569 45.2289 169.204 45.2289C168.418 45.2289 167.712 45.3995 167.085 45.7407C166.466 46.0739 165.978 46.5381 165.621 47.1332C165.264 47.7283 165.086 48.4146 165.086 49.1922V59.9394H160.777ZM178.999 60.3083C177.84 60.3083 176.797 60.102 175.869 59.6894C174.948 59.2689 174.218 58.65 173.679 57.8328C173.147 57.0155 172.881 56.0078 172.881 54.8097C172.881 53.7783 173.072 52.9253 173.453 52.2509C173.833 51.5765 174.353 51.0369 175.012 50.6323C175.67 50.2276 176.412 49.9221 177.237 49.7158C178.07 49.5016 178.931 49.3469 179.82 49.2517C180.891 49.1406 181.76 49.0414 182.426 48.9541C183.093 48.8589 183.577 48.7161 183.878 48.5257C184.188 48.3273 184.343 48.0218 184.343 47.6092V47.5378C184.343 46.6412 184.077 45.947 183.545 45.455C183.014 44.9631 182.248 44.7171 181.248 44.7171C180.193 44.7171 179.356 44.9472 178.737 45.4074C178.126 45.8676 177.713 46.4111 177.499 47.038L173.476 46.4667C173.794 45.3558 174.317 44.4275 175.047 43.6817C175.777 42.9279 176.67 42.3646 177.725 41.9916C178.781 41.6108 179.947 41.4204 181.224 41.4204C182.105 41.4204 182.982 41.5235 183.855 41.7298C184.727 41.9361 185.525 42.2773 186.247 42.7533C186.969 43.2215 187.548 43.8602 187.985 44.6695C188.429 45.4788 188.651 46.4905 188.651 47.7044V59.9394H184.509V57.4281H184.366C184.105 57.9359 183.736 58.412 183.26 58.8563C182.791 59.2927 182.2 59.6458 181.486 59.9156C180.78 60.1774 179.951 60.3083 178.999 60.3083ZM180.118 57.1425C180.982 57.1425 181.732 56.9719 182.367 56.6307C183.002 56.2816 183.49 55.8214 183.831 55.2501C184.18 54.6788 184.355 54.056 184.355 53.3815V51.2273C184.22 51.3384 183.99 51.4416 183.664 51.5368C183.347 51.632 182.99 51.7153 182.593 51.7867C182.196 51.8581 181.804 51.9216 181.415 51.9771C181.026 52.0327 180.689 52.0803 180.403 52.12C179.76 52.2072 179.185 52.3501 178.677 52.5484C178.17 52.7468 177.769 53.0245 177.475 53.3815C177.182 53.7307 177.035 54.1829 177.035 54.7383C177.035 55.5318 177.325 56.1308 177.904 56.5355C178.483 56.9401 179.221 57.1425 180.118 57.1425Z" fill="white"/>
</g>
<defs>
<filter id="filter0_dd_3656_1939" x="7.34329e-05" y="-1.90735e-06" width="226.804" height="100.667" filterUnits="userSpaceOnUse" color-interpolation-filters="sRGB">
<feFlood flood-opacity="0" result="BackgroundImageFix"/>
<feColorMatrix in="SourceAlpha" type="matrix" values="0 0 0 0 0 0 0 0 0 0 0 0 0 0 0 0 0 0 127 0" result="hardAlpha"/>
<feMorphology radius="2.39394" operator="erode" in="SourceAlpha" result="effect1_dropShadow_3656_1939"/>
<feOffset dy="2.39394"/>
<feGaussianBlur stdDeviation="2.39394"/>
<feComposite in2="hardAlpha" operator="out"/>
<feColorMatrix type="matrix" values="0 0 0 0 0.0392157 0 0 0 0 0.0496732 0 0 0 0 0.0705882 0 0 0 0.1 0"/>
<feBlend mode="normal" in2="BackgroundImageFix" result="effect1_dropShadow_3656_1939"/>
<feColorMatrix in="SourceAlpha" type="matrix" values="0 0 0 0 0 0 0 0 0 0 0 0 0 0 0 0 0 0 127 0" result="hardAlpha"/>
<feOffset dy="2.39394"/>
<feGaussianBlur stdDeviation="3.59091"/>
<feComposite in2="hardAlpha" operator="out"/>
<feColorMatrix type="matrix" values="0 0 0 0 0.0392157 0 0 0 0 0.0496732 0 0 0 0 0.0705882 0 0 0 0.1 0"/>
<feBlend mode="normal" in2="effect1_dropShadow_3656_1939" result="effect2_dropShadow_3656_1939"/>
<feBlend mode="normal" in="SourceGraphic" in2="effect2_dropShadow_3656_1939" result="shape"/>
</filter>
<clipPath id="clip0_3656_1939">
<rect x="35.9092" y="23.9987" width="47.8814" height="47.8814" rx="23.9407" fill="white"/>
</clipPath>
</defs>
</svg>
