<svg width="270" height="83" viewBox="0 0 270 83" fill="none" xmlns="http://www.w3.org/2000/svg">
<path d="M250.668 65.688C248.276 65.688 245.946 65.4733 243.676 65.044C241.407 64.6147 239.322 64.0013 237.42 63.204C235.519 62.4067 233.832 61.4253 232.36 60.26L235.028 54.004C236.562 55.0466 238.187 55.9667 239.904 56.764C241.622 57.5 243.4 58.052 245.24 58.42C247.142 58.788 248.982 58.972 250.76 58.972C254.011 58.972 256.464 58.3893 258.12 57.224C259.776 56.0587 260.604 54.4946 260.604 52.532C260.604 50.9373 260.052 49.7106 258.948 48.852C257.844 47.932 256.188 47.2267 253.98 46.736L245.24 44.988C241.438 44.1906 238.555 42.78 236.592 40.756C234.63 38.732 233.648 36.156 233.648 33.028C233.648 30.2067 234.415 27.7533 235.948 25.668C237.482 23.5827 239.628 21.988 242.388 20.884C245.148 19.7187 248.338 19.136 251.956 19.136C254.042 19.136 256.066 19.3507 258.028 19.78C259.991 20.2093 261.831 20.8227 263.548 21.62C265.327 22.4173 266.83 23.4293 268.056 24.656L265.388 30.912C264.223 29.8693 262.874 28.98 261.34 28.244C259.868 27.508 258.335 26.956 256.74 26.588C255.146 26.1587 253.551 25.944 251.956 25.944C248.706 25.944 246.252 26.5573 244.596 27.784C243.002 28.9493 242.204 30.544 242.204 32.568C242.204 34.1013 242.695 35.3587 243.676 36.34C244.658 37.3213 246.191 38.0267 248.276 38.456L257.016 40.204C261.003 41.0013 264.008 42.3506 266.032 44.252C268.118 46.1533 269.16 48.7293 269.16 51.98C269.16 54.8013 268.394 57.2547 266.86 59.34C265.327 61.4253 263.15 63.02 260.328 64.124C257.568 65.1667 254.348 65.688 250.668 65.688Z" fill="#2C365D"/>
<path d="M210.706 65.688C208.314 65.688 205.984 65.4733 203.714 65.044C201.445 64.6147 199.36 64.0013 197.458 63.204C195.557 62.4067 193.87 61.4253 192.398 60.26L195.066 54.004C196.6 55.0466 198.225 55.9667 199.942 56.764C201.66 57.5 203.438 58.052 205.278 58.42C207.18 58.788 209.02 58.972 210.798 58.972C214.049 58.972 216.502 58.3893 218.158 57.224C219.814 56.0587 220.642 54.4946 220.642 52.532C220.642 50.9373 220.09 49.7106 218.986 48.852C217.882 47.932 216.226 47.2267 214.018 46.736L205.278 44.988C201.476 44.1906 198.593 42.78 196.63 40.756C194.668 38.732 193.686 36.156 193.686 33.028C193.686 30.2067 194.453 27.7533 195.986 25.668C197.52 23.5827 199.666 21.988 202.426 20.884C205.186 19.7187 208.376 19.136 211.994 19.136C214.08 19.136 216.104 19.3507 218.066 19.78C220.029 20.2093 221.869 20.8227 223.586 21.62C225.365 22.4173 226.868 23.4293 228.094 24.656L225.426 30.912C224.261 29.8693 222.912 28.98 221.378 28.244C219.906 27.508 218.373 26.956 216.778 26.588C215.184 26.1587 213.589 25.944 211.994 25.944C208.744 25.944 206.29 26.5573 204.634 27.784C203.04 28.9493 202.242 30.544 202.242 32.568C202.242 34.1013 202.733 35.3587 203.714 36.34C204.696 37.3213 206.229 38.0267 208.314 38.456L217.054 40.204C221.041 41.0013 224.046 42.3506 226.07 44.252C228.156 46.1533 229.198 48.7293 229.198 51.98C229.198 54.8013 228.432 57.2547 226.898 59.34C225.365 61.4253 223.188 63.02 220.366 64.124C217.606 65.1667 214.386 65.688 210.706 65.688Z" fill="#2C365D"/>
<path d="M164.512 65.688C161.384 65.688 158.562 65.0747 156.048 63.848C153.594 62.6213 151.662 60.9653 150.252 58.88C148.841 56.7946 148.136 54.4333 148.136 51.796C148.136 48.484 148.964 45.8773 150.62 43.976C152.337 42.0133 155.128 40.6333 158.992 39.836C162.917 38.9773 168.192 38.548 174.816 38.548H179.14V44.252H174.908C171.596 44.252 168.805 44.3747 166.536 44.62C164.266 44.8653 162.457 45.264 161.108 45.816C159.758 46.3067 158.777 47.012 158.164 47.932C157.612 48.852 157.336 49.956 157.336 51.244C157.336 53.5747 158.133 55.476 159.728 56.948C161.322 58.3586 163.53 59.064 166.352 59.064C168.621 59.064 170.614 58.5427 172.332 57.5C174.049 56.396 175.398 54.924 176.38 53.084C177.422 51.244 177.944 49.128 177.944 46.736V36.156C177.944 32.66 177.208 30.1453 175.736 28.612C174.264 27.0787 171.841 26.312 168.468 26.312C165.892 26.312 163.316 26.7107 160.74 27.508C158.164 28.244 155.526 29.44 152.828 31.096L149.976 24.564C151.57 23.46 153.41 22.5093 155.496 21.712C157.581 20.9146 159.758 20.3013 162.028 19.872C164.358 19.3813 166.597 19.136 168.744 19.136C172.853 19.136 176.226 19.78 178.864 21.068C181.562 22.356 183.556 24.3187 184.844 26.956C186.132 29.5933 186.776 32.9973 186.776 37.168V64.86H178.036V54.832H178.864C178.373 57.1013 177.453 59.064 176.104 60.72C174.816 62.3147 173.19 63.5413 171.228 64.4C169.265 65.2587 167.026 65.688 164.512 65.688Z" fill="#2C365D"/>
<path d="M131.705 0V64.86H141.273V0H131.705Z" fill="#2C365D"/>
<path d="M101 82.248C96.952 82.248 93.18 81.7573 89.684 80.776C86.188 79.7947 83.0907 78.3227 80.392 76.36L83.244 69.736C85.0227 70.9013 86.832 71.8827 88.672 72.68C90.5733 73.5387 92.4747 74.152 94.376 74.52C96.3387 74.888 98.332 75.072 100.356 75.072C104.649 75.072 107.869 73.968 110.016 71.76C112.163 69.6133 113.236 66.424 113.236 62.192V52.808H114.064C113.144 56.1813 111.212 58.8493 108.268 60.812C105.324 62.7747 101.92 63.756 98.056 63.756C94.008 63.756 90.4813 62.836 87.476 60.996C84.4707 59.0947 82.14 56.488 80.484 53.176C78.828 49.8027 78 45.8773 78 41.4C78 36.9227 78.828 33.028 80.484 29.716C82.14 26.404 84.4707 23.828 87.476 21.988C90.4813 20.0867 94.008 19.136 98.056 19.136C101.981 19.136 105.385 20.1173 108.268 22.08C111.212 24.0426 113.113 26.7107 113.972 30.084H113.236V19.964H122.252V61.088C122.252 65.7493 121.455 69.644 119.86 72.772C118.265 75.9613 115.873 78.3227 112.684 79.856C109.556 81.4507 105.661 82.248 101 82.248ZM100.264 56.488C104.251 56.488 107.379 55.1387 109.648 52.44C111.979 49.7413 113.144 46.0613 113.144 41.4C113.144 36.8 111.979 33.1507 109.648 30.452C107.379 27.7533 104.251 26.404 100.264 26.404C96.3387 26.404 93.2107 27.7533 90.88 30.452C88.5493 33.1507 87.384 36.8 87.384 41.4C87.384 46.0613 88.5493 49.7413 90.88 52.44C93.2107 55.1387 96.3387 56.488 100.264 56.488Z" fill="#2C365D"/>
<circle cx="36" cy="41" r="36" fill="#2C365D"/>
<path d="M30.96 5.34497C30.214 5.44948 29.4753 5.57685 28.7447 5.72635C12.3402 9.08322 0 23.598 0 40.995C0 59.1667 13.4638 74.1939 30.96 76.645V70.4542C30.96 69.9586 30.7152 69.495 30.3059 69.2155L16.4743 59.7697C16.065 59.4902 15.8202 59.0266 15.8202 58.531V55.3446C15.8202 54.849 16.065 54.3854 16.4743 54.1059L30.3059 44.6601C30.7152 44.3806 30.96 43.917 30.96 43.4214L30.96 38.0542C30.96 37.5586 30.7152 37.095 30.3059 36.8155L16.4743 27.3697C16.065 27.0902 15.8202 26.6266 15.8202 26.131V22.9446C15.8202 22.449 16.065 21.9854 16.4743 21.7059L30.3059 12.2601C30.7152 11.9806 30.96 11.517 30.96 11.0214L30.96 5.34497Z" fill="#4EEECA"/>
<path d="M30.9444 76.65C32.5913 76.8807 34.2739 77 35.9844 77C39.4834 77 42.8658 76.5008 46.0642 75.5698L46.0642 70.4487C46.0642 69.959 45.8251 69.5 45.4237 69.2194L31.917 59.7759C31.5156 59.4952 31.2765 59.0363 31.2765 58.5466V55.3391C31.2765 54.8494 31.5156 54.3905 31.917 54.1098L45.4237 44.6663C45.8251 44.3857 46.0642 43.9267 46.0642 43.437V38.0487C46.0642 37.559 45.8251 37.1 45.4237 36.8194L31.917 27.3759C31.5156 27.0952 31.2765 26.6363 31.2765 26.1466V22.9392C31.2765 22.4494 31.5156 21.9905 31.917 21.7098L45.4238 12.2663C45.8251 11.9857 46.0642 11.5267 46.0642 11.037L46.0642 6.43022C42.8701 5.50046 39.4926 5.00137 35.9987 5H35.97C34.2645 5.00067 32.5867 5.11993 30.9444 5.35L30.9444 11.0265C30.9444 11.5221 30.6996 11.9857 30.2904 12.2652L16.4587 21.711C16.1169 21.9444 15.8898 22.3063 15.8242 22.708L15.8242 26.3777C15.8898 26.7794 16.1169 27.1413 16.4587 27.3747L30.2904 36.8206C30.6996 37.1 30.9444 37.5637 30.9444 38.0593V43.4265C30.9444 43.9221 30.6996 44.3857 30.2904 44.6652L16.4587 54.111C16.1169 54.3444 15.8898 54.7063 15.8242 55.108L15.8242 58.7777C15.8898 59.1794 16.1169 59.5413 16.4587 59.7747L30.2904 69.2206C30.6996 69.5 30.9444 69.9637 30.9444 70.4593L30.9444 76.65Z" fill="#42A9A1"/>
<path d="M59.3025 13.591L47.559 21.7051C47.1536 21.9852 46.9117 22.4465 46.9117 22.9392V26.136C46.9117 26.6287 47.1536 27.09 47.559 27.37L61.2281 36.8147C61.6334 37.0947 61.8754 37.556 61.8754 38.0487V43.4264C61.8754 43.9191 61.6334 44.3804 61.2281 44.6605L47.559 54.1051C47.1536 54.3852 46.9117 54.8464 46.9117 55.3392V58.536C46.9117 59.0287 47.1536 59.49 47.559 59.77L59.6334 68.1128C55.7469 71.509 51.1239 74.0833 46.0353 75.5645V70.4434C46.0353 69.9537 45.7962 69.4947 45.3948 69.2141L31.8881 59.7706C31.5666 59.5458 31.3492 59.2066 31.2754 58.8288V55.0464C31.3492 54.6685 31.5666 54.3293 31.8881 54.1045L45.3948 44.661C45.7962 44.3804 46.0353 43.9215 46.0353 43.4317L46.0353 38.0434C46.0353 37.5537 45.7962 37.0948 45.3948 36.8141L31.8881 27.3706C31.5666 27.1458 31.3492 26.8066 31.2754 26.4288V22.6464C31.3492 22.2685 31.5666 21.9293 31.8881 21.7045L45.3948 12.261C45.7962 11.9804 46.0353 11.5215 46.0353 11.0317V6.42493C50.9802 7.86433 55.4856 10.3359 59.3025 13.591Z" fill="#356478"/>
</svg>
