<svg width="243" height="54" viewBox="0 0 243 54" fill="none" xmlns="http://www.w3.org/2000/svg">
<path d="M196.016 52.9845V0.814453H206.006L232.054 33.3005H229.982V0.814453H242.562V52.9845H232.646L206.598 20.4245H208.67V52.9845H196.016Z" fill="#06BFEF"/>
<path d="M113.596 20.9844V0.984375H126.596V20.9844H113.596Z" fill="#06BFEF"/>
<path d="M113.596 52.9844V31.9844H126.596V52.9844H113.596Z" fill="#06BFEF"/>
<path d="M61.0234 52.9845V0.814453H86.1094C92.0294 0.814453 96.5928 2.26979 99.7994 5.18045C103.055 8.04179 104.683 12.0378 104.683 17.1685C104.683 20.4738 103.943 23.3598 102.463 25.8265C101.033 28.2438 98.9361 30.1185 96.1734 31.4505C93.4601 32.7331 90.1054 33.3745 86.1094 33.3745L86.7014 32.0425H90.2534C92.3748 32.0425 94.2494 32.5605 95.8774 33.5965C97.5054 34.5831 98.8621 36.1125 99.9474 38.1845L108.087 52.9845H93.1394L84.1114 36.4085C83.7168 35.6685 83.2481 35.1011 82.7054 34.7065C82.1628 34.3118 81.5461 34.0158 80.8554 33.8185C80.2141 33.6211 79.4988 33.5225 78.7094 33.5225H74.6394V52.9845H61.0234ZM74.6394 23.9025H83.6674C86.2821 23.9025 88.2801 23.3845 89.6614 22.3485C91.0428 21.3125 91.7334 19.7091 91.7334 17.5385C91.7334 15.4665 91.0428 13.9125 89.6614 12.8765C88.2801 11.7911 86.2821 11.2485 83.6674 11.2485H74.6394V23.9025Z" fill="#06BFEF"/>
<path d="M26.492 53.798C22.5453 53.798 18.944 53.1567 15.688 51.874C12.432 50.5913 9.62 48.766 7.252 46.398C4.93333 43.9807 3.13267 41.1193 1.85 37.814C0.616667 34.5087 0 30.858 0 26.862C0 22.8167 0.616667 19.1413 1.85 15.836C3.13267 12.5307 4.93333 9.694 7.252 7.326C9.62 4.958 12.432 3.15733 15.688 1.924C18.944 0.641331 22.5453 0 26.492 0C30.4387 0 34.04 0.641331 37.296 1.924C40.552 3.15733 43.3393 4.958 45.658 7.326C48.026 9.694 49.8267 12.5307 51.06 15.836C52.3427 19.092 52.984 22.7427 52.984 26.788C52.984 30.8827 52.3427 34.5827 51.06 37.888C49.8267 41.1933 48.026 44.0547 45.658 46.472C43.3393 48.84 40.552 50.6653 37.296 51.948C34.04 53.1813 30.4387 53.798 26.492 53.798ZM26.492 42.402C29.1067 42.402 31.3267 41.7853 33.152 40.552C34.9773 39.3187 36.3833 37.5427 37.37 35.224C38.3567 32.9053 38.85 30.118 38.85 26.862C38.85 23.606 38.3567 20.8187 37.37 18.5C36.4327 16.1813 35.0267 14.43 33.152 13.246C31.3267 12.0127 29.1067 11.396 26.492 11.396C23.9267 11.396 21.7067 12.0127 19.832 13.246C18.0067 14.43 16.6007 16.1813 15.614 18.5C14.6273 20.8187 14.134 23.606 14.134 26.862C14.134 30.118 14.6027 32.9053 15.54 35.224C16.5267 37.5427 17.9573 39.3187 19.832 40.552C21.7067 41.7853 23.9267 42.402 26.492 42.402Z" fill="#06BFEF"/>
<path d="M161.484 0C165.431 2.14888e-05 169.032 0.641221 172.288 1.92383C175.544 3.15716 178.332 4.95817 180.65 7.32617C183.018 9.69409 184.818 12.5308 186.052 15.8359C187.334 19.0919 187.977 22.7428 187.977 26.7881C187.977 30.8827 187.334 34.5824 186.052 37.8877C184.818 41.1929 183.018 44.0544 180.65 46.4717C178.332 48.8397 175.544 50.6656 172.288 51.9482C169.032 53.1815 165.431 53.7978 161.484 53.7979C157.538 53.7979 153.937 53.1566 150.681 51.874C147.425 50.5914 144.612 48.7663 142.244 46.3984C139.926 43.9812 138.124 41.1197 136.842 37.8145C136.157 35.9779 135.663 34.0342 135.358 31.9844H149.586C149.815 33.1502 150.131 34.23 150.532 35.2236C151.519 37.5423 152.95 39.3184 154.824 40.5518C156.699 41.7851 158.919 42.4023 161.484 42.4023C164.099 42.4023 166.319 41.7851 168.145 40.5518C169.97 39.3184 171.376 37.5421 172.362 35.2236C173.349 32.9051 173.842 30.118 173.842 26.8623C173.842 23.6063 173.349 20.8187 172.362 18.5C171.425 16.1815 170.019 14.4301 168.145 13.2461C166.319 12.0128 164.099 11.3965 161.484 11.3965C158.919 11.3965 156.699 12.0128 154.824 13.2461C152.999 14.4301 151.593 16.1814 150.606 18.5C150.276 19.2756 150.003 20.1039 149.783 20.9844H135.471C135.779 19.1788 136.235 17.4624 136.842 15.8359C138.124 12.5307 139.926 9.69415 142.244 7.32617C144.612 4.95817 147.425 3.15716 150.681 1.92383C153.937 0.641289 157.538 0 161.484 0Z" fill="#06BFEF"/>
<circle cx="119.096" cy="26.4844" r="3.5" fill="#06BFEF"/>
<circle cx="131.096" cy="26.4844" r="3.5" fill="#06BFEF"/>
<circle cx="143.096" cy="26.4844" r="3.5" fill="#06BFEF"/>
</svg>
