<svg width="46" height="32" viewBox="0 0 46 32" fill="none" xmlns="http://www.w3.org/2000/svg">
<path d="M4 0.5H42C43.933 0.5 45.5 2.067 45.5 4V28C45.5 29.933 43.933 31.5 42 31.5H4C2.067 31.5 0.5 29.933 0.5 28V4C0.5 2.067 2.067 0.5 4 0.5Z" fill="white"/>
<path d="M4 0.5H42C43.933 0.5 45.5 2.067 45.5 4V28C45.5 29.933 43.933 31.5 42 31.5H4C2.067 31.5 0.5 29.933 0.5 28V4C0.5 2.067 2.067 0.5 4 0.5Z" stroke="#E9EAEB"/>
<mask id="mask0_4211_13799" style="mask-type:alpha" maskUnits="userSpaceOnUse" x="11" y="4" width="24" height="24">
<rect x="11" y="4" width="24" height="24" fill="#D9D9D9"/>
</mask>
<g mask="url(#mask0_4211_13799)">
<path d="M15 24C14.45 24 13.9792 23.8042 13.5875 23.4125C13.1958 23.0208 13 22.55 13 22V10C13 9.45 13.1958 8.97917 13.5875 8.5875C13.9792 8.19583 14.45 8 15 8H31C31.55 8 32.0208 8.19583 32.4125 8.5875C32.8042 8.97917 33 9.45 33 10V16H15V22H25V24H15ZM15 12H31V10H15V12ZM30 26V23H27V21H30V18H32V21H35V23H32V26H30Z" fill="#1C1B1F"/>
</g>
</svg>
