<svg width="46" height="32" viewBox="0 0 46 32" fill="none" xmlns="http://www.w3.org/2000/svg">
<path d="M4 0.5H42C43.933 0.5 45.5 2.067 45.5 4V28C45.5 29.933 43.933 31.5 42 31.5H4C2.067 31.5 0.5 29.933 0.5 28V4C0.5 2.067 2.067 0.5 4 0.5Z" fill="white"/>
<path d="M4 0.5H42C43.933 0.5 45.5 2.067 45.5 4V28C45.5 29.933 43.933 31.5 42 31.5H4C2.067 31.5 0.5 29.933 0.5 28V4C0.5 2.067 2.067 0.5 4 0.5Z" stroke="#E9EAEB"/>
<path d="M28.7695 6.70667C33.7627 6.70667 37.8105 10.7065 37.8105 15.6403C37.8104 20.5739 33.7626 24.5729 28.7695 24.5729C26.5311 24.5728 24.4842 23.7676 22.9053 22.4362C21.3264 23.7676 19.2795 24.5729 17.041 24.5729C12.0479 24.5729 8.00014 20.5739 8 15.6403C8 10.7065 12.0479 6.70667 17.041 6.70667C19.2794 6.70669 21.3264 7.51203 22.9053 8.84338C24.4842 7.51202 26.5312 6.7067 28.7695 6.70667Z" fill="#ED0006"/>
<path d="M28.7695 6.70667C33.7627 6.70667 37.8105 10.7065 37.8105 15.6403C37.8104 20.5739 33.7626 24.5729 28.7695 24.5729C26.5311 24.5728 24.4842 23.7676 22.9053 22.4362C24.8482 20.7977 26.082 18.362 26.082 15.6403C26.082 12.9183 24.8484 10.4819 22.9053 8.84338C24.4842 7.51202 26.5312 6.70669 28.7695 6.70667Z" fill="#F9A000"/>
<path d="M22.9048 8.84375C24.848 10.4822 26.0814 12.9177 26.0815 15.6396C26.0815 18.3616 24.8479 20.797 22.9048 22.4355C20.9622 20.797 19.729 18.3612 19.729 15.6396C19.7291 12.9181 20.9621 10.4822 22.9048 8.84375Z" fill="#FF5E00"/>
</svg>
