<svg width="50" height="21" viewBox="0 0 50 21" fill="none" xmlns="http://www.w3.org/2000/svg">
<path d="M23.8898 3.35205C25.5119 3.35205 26.712 3.75759 27.49 4.56867C28.2845 5.37975 28.6818 6.61293 28.6818 8.26819V15.7666H26.2733V13.7554C25.9588 14.4672 25.4871 15.0134 24.8581 15.3941C24.2456 15.7583 23.5256 15.9404 22.698 15.9404C21.9034 15.9404 21.1751 15.7831 20.513 15.4686C19.8509 15.1376 19.3295 14.6824 18.9488 14.103C18.5846 13.5237 18.4026 12.8781 18.4026 12.1663C18.4026 11.2891 18.626 10.6021 19.0729 10.1055C19.5364 9.59241 20.2896 9.22825 21.3324 9.01306C22.3918 8.79788 23.8401 8.69029 25.6775 8.69029H26.2485V7.97025C26.2485 7.0433 26.0499 6.37291 25.6526 5.9591C25.2719 5.54528 24.6429 5.33837 23.7656 5.33837C22.3918 5.33837 21.0179 5.76046 19.644 6.60465L18.8991 4.84179C19.5447 4.39487 20.3227 4.03899 21.2331 3.77414C22.16 3.49275 23.0456 3.35205 23.8898 3.35205ZM23.1449 14.0782C24.0553 14.0782 24.8002 13.772 25.3795 13.1595C25.9589 12.5305 26.2485 11.7277 26.2485 10.7511V10.1055H25.8016C24.5105 10.1055 23.5173 10.1635 22.8221 10.2793C22.1269 10.3952 21.6303 10.5938 21.3324 10.8752C21.0344 11.1401 20.8855 11.5291 20.8855 12.0422C20.8855 12.6215 21.0924 13.1098 21.5062 13.5071C21.9366 13.8878 22.4828 14.0782 23.1449 14.0782Z" fill="white"/>
<path d="M16.9356 14.0036C17.3164 14.0036 17.6888 13.9787 18.0529 13.9291V15.8409C17.6391 15.9071 17.0846 15.9402 16.6377 15.9402C15.0652 15.9402 13.8899 15.5595 13.112 14.7981C12.3506 14.0201 11.9698 12.9028 11.9698 11.4462V5.58653H9.61108V3.64986H11.9698V0H14.4776V3.64986H17.8047V5.58653H14.4776V11.3469C14.4776 13.118 15.2969 14.0036 16.9356 14.0036Z" fill="white"/>
<path d="M30.0385 0H32.5462V15.7664H30.0385V0Z" fill="white"/>
<path d="M33.9887 0H36.4964V15.7664H33.9887V0Z" fill="white"/>
<path d="M49.9991 3.67407L42.7738 20.235H40.2413L42.3518 15.4678L37.2618 3.67407H39.8937L43.6677 12.9353L47.4914 3.67407H49.9991Z" fill="white"/>
<path d="M0 0.925055C0 0.414161 0.404982 0 0.904552 0H5.95497C6.45454 0 6.85952 0.414161 6.85952 0.925055V1.53307L3.94593 3.55225C3.66985 3.74357 3.50514 4.05812 3.50514 4.39401C3.50514 4.72991 3.66985 5.04445 3.94593 5.23578L6.85952 7.25496V8.81788L3.94593 10.8371C3.66985 11.0284 3.50514 11.3429 3.50514 11.6788C3.50514 12.0147 3.66985 12.3293 3.94593 12.5206L6.85952 14.5398V15.2634C6.85952 15.7743 6.45454 16.1885 5.95497 16.1885H0.904552C0.404981 16.1885 0 15.7743 0 15.2634V0.925055Z" fill="#E86300"/>
</svg>
