<svg width="210" height="33" viewBox="0 0 210 33" fill="none" xmlns="http://www.w3.org/2000/svg">
<path d="M6.696 24.216C5.224 24.216 4.128 23.84 3.408 23.088C2.688 22.336 2.328 21.248 2.328 19.824V14.16H0.048V12.288H2.328V8.76H4.752V12.288H8.376V14.16H4.752V19.632C4.752 20.48 4.928 21.12 5.28 21.552C5.648 21.984 6.24 22.2 7.056 22.2C7.312 22.2 7.56 22.176 7.8 22.128C8.04 22.064 8.28 21.992 8.52 21.912L8.904 23.736C8.664 23.88 8.328 23.992 7.896 24.072C7.48 24.168 7.08 24.216 6.696 24.216ZM13.2136 24.216C12.3976 24.216 11.6696 24.056 11.0296 23.736C10.3896 23.416 9.87763 22.984 9.49363 22.44C9.12563 21.896 8.94163 21.28 8.94163 20.592C8.94163 19.728 9.15763 19.048 9.58963 18.552C10.0376 18.056 10.7656 17.696 11.7736 17.472C12.7976 17.248 14.1736 17.136 15.9016 17.136H16.7176V16.512C16.7176 15.6 16.5256 14.944 16.1416 14.544C15.7576 14.144 15.1256 13.944 14.2456 13.944C13.5736 13.944 12.9016 14.048 12.2296 14.256C11.5576 14.448 10.8696 14.76 10.1656 15.192L9.42163 13.488C10.0296 13.056 10.7896 12.712 11.7016 12.456C12.6136 12.2 13.4856 12.072 14.3176 12.072C15.9176 12.072 17.1016 12.456 17.8696 13.224C18.6376 13.976 19.0216 15.16 19.0216 16.776V24H16.7416V22.056C16.4536 22.728 16.0056 23.256 15.3976 23.64C14.7896 24.024 14.0616 24.216 13.2136 24.216ZM13.6936 22.488C14.5576 22.488 15.2776 22.184 15.8536 21.576C16.4296 20.968 16.7176 20.2 16.7176 19.272V18.624H15.9256C14.7576 18.624 13.8376 18.68 13.1656 18.792C12.5096 18.904 12.0376 19.096 11.7496 19.368C11.4776 19.624 11.3416 19.984 11.3416 20.448C11.3416 21.056 11.5496 21.552 11.9656 21.936C12.3816 22.304 12.9576 22.488 13.6936 22.488ZM25.1763 24.216C23.8963 24.216 22.9363 23.856 22.2963 23.136C21.6723 22.416 21.3603 21.36 21.3603 19.968V7.08H23.7843V19.824C23.7843 21.408 24.4323 22.2 25.7283 22.2C25.9203 22.2 26.0963 22.192 26.2563 22.176C26.4323 22.16 26.6083 22.128 26.7843 22.08L26.7363 24.024C26.1923 24.152 25.6723 24.216 25.1763 24.216ZM31.5122 24.216C30.2322 24.216 29.2722 23.856 28.6322 23.136C28.0082 22.416 27.6962 21.36 27.6962 19.968V7.08H30.1202V19.824C30.1202 21.408 30.7682 22.2 32.0642 22.2C32.2562 22.2 32.4322 22.192 32.5922 22.176C32.7682 22.16 32.9442 22.128 33.1202 22.08L33.0722 24.024C32.5282 24.152 32.0082 24.216 31.5122 24.216ZM34.9509 28.32L37.0389 23.688L32.1429 12.288H34.7349L38.3349 21.192L41.9829 12.288H44.4789L37.4949 28.32H34.9509Z" fill="#2C365D"/>
<path d="M51.8324 24V7.08H58.1204C60.9524 7.08 63.1364 7.808 64.6724 9.264C66.2244 10.72 67.0004 12.808 67.0004 15.528C67.0004 18.232 66.2244 20.32 64.6724 21.792C63.1364 23.264 60.9524 24 58.1204 24H51.8324ZM54.9044 21.456H57.9284C61.8324 21.456 63.7844 19.48 63.7844 15.528C63.7844 11.592 61.8324 9.624 57.9284 9.624H54.9044V21.456ZM75.6096 24.24C74.2816 24.24 73.1376 23.992 72.1776 23.496C71.2176 23 70.4736 22.296 69.9456 21.384C69.4336 20.472 69.1776 19.392 69.1776 18.144C69.1776 16.928 69.4256 15.864 69.9216 14.952C70.4336 14.04 71.1296 13.328 72.0096 12.816C72.9056 12.288 73.9216 12.024 75.0576 12.024C76.7216 12.024 78.0336 12.552 78.9936 13.608C79.9696 14.664 80.4576 16.104 80.4576 17.928V18.816H72.0576C72.2816 20.912 73.4816 21.96 75.6576 21.96C76.3136 21.96 76.9696 21.864 77.6256 21.672C78.2816 21.464 78.8816 21.144 79.4256 20.712L80.2656 22.728C79.7056 23.192 79.0016 23.56 78.1536 23.832C77.3056 24.104 76.4576 24.24 75.6096 24.24ZM75.1776 14.064C74.2976 14.064 73.5856 14.336 73.0416 14.88C72.4976 15.424 72.1696 16.16 72.0576 17.088H77.9616C77.8976 16.112 77.6256 15.368 77.1456 14.856C76.6816 14.328 76.0256 14.064 75.1776 14.064ZM87.1294 24.24C86.1374 24.24 85.2094 24.12 84.3454 23.88C83.4814 23.64 82.7614 23.296 82.1854 22.848L82.9534 20.88C83.5454 21.28 84.2094 21.592 84.9454 21.816C85.6814 22.024 86.4174 22.128 87.1534 22.128C87.9214 22.128 88.4894 22 88.8574 21.744C89.2414 21.472 89.4334 21.12 89.4334 20.688C89.4334 20.016 88.9374 19.584 87.9454 19.392L85.5454 18.936C83.5134 18.552 82.4974 17.496 82.4974 15.768C82.4974 15 82.7054 14.336 83.1214 13.776C83.5534 13.216 84.1454 12.784 84.8974 12.48C85.6494 12.176 86.5134 12.024 87.4894 12.024C88.3214 12.024 89.1214 12.144 89.8894 12.384C90.6574 12.608 91.3134 12.952 91.8574 13.416L91.0414 15.384C90.5774 15 90.0174 14.696 89.3614 14.472C88.7214 14.248 88.1054 14.136 87.5134 14.136C86.7294 14.136 86.1454 14.272 85.7614 14.544C85.3934 14.816 85.2094 15.176 85.2094 15.624C85.2094 16.328 85.6654 16.76 86.5774 16.92L88.9774 17.376C90.0174 17.568 90.8014 17.92 91.3294 18.432C91.8734 18.944 92.1454 19.632 92.1454 20.496C92.1454 21.664 91.6894 22.584 90.7774 23.256C89.8654 23.912 88.6494 24.24 87.1294 24.24ZM94.3602 9.744V6.816H97.7202V9.744H94.3602ZM94.5522 24V12.264H97.5522V24H94.5522ZM106.141 28.56C105.053 28.56 104.029 28.432 103.069 28.176C102.125 27.936 101.293 27.56 100.573 27.048L101.437 24.96C102.109 25.408 102.829 25.736 103.597 25.944C104.365 26.168 105.133 26.28 105.901 26.28C108.045 26.28 109.117 25.248 109.117 23.184V21.576C108.781 22.232 108.261 22.752 107.557 23.136C106.869 23.52 106.101 23.712 105.253 23.712C104.197 23.712 103.277 23.472 102.493 22.992C101.709 22.496 101.101 21.808 100.669 20.928C100.237 20.048 100.021 19.024 100.021 17.856C100.021 16.688 100.237 15.672 100.669 14.808C101.101 13.928 101.709 13.248 102.493 12.768C103.277 12.272 104.197 12.024 105.253 12.024C106.133 12.024 106.917 12.224 107.605 12.624C108.293 13.008 108.797 13.528 109.117 14.184V12.264H112.045V22.824C112.045 24.728 111.541 26.16 110.533 27.12C109.525 28.08 108.061 28.56 106.141 28.56ZM106.069 21.432C106.997 21.432 107.733 21.112 108.277 20.472C108.821 19.832 109.093 18.96 109.093 17.856C109.093 16.752 108.821 15.888 108.277 15.264C107.733 14.624 106.997 14.304 106.069 14.304C105.141 14.304 104.405 14.624 103.861 15.264C103.317 15.888 103.045 16.752 103.045 17.856C103.045 18.96 103.317 19.832 103.861 20.472C104.405 21.112 105.141 21.432 106.069 21.432ZM115.154 24V12.264H118.082V14.088C118.482 13.416 119.018 12.904 119.69 12.552C120.378 12.2 121.146 12.024 121.994 12.024C124.762 12.024 126.146 13.632 126.146 16.848V24H123.146V16.992C123.146 16.08 122.97 15.416 122.618 15C122.282 14.584 121.754 14.376 121.034 14.376C120.154 14.376 119.45 14.656 118.922 15.216C118.41 15.76 118.154 16.488 118.154 17.4V24H115.154ZM135.313 24.24C133.985 24.24 132.753 24.072 131.617 23.736C130.481 23.384 129.521 22.912 128.737 22.32L129.673 19.896C130.457 20.456 131.313 20.888 132.241 21.192C133.185 21.496 134.209 21.648 135.313 21.648C136.577 21.648 137.497 21.44 138.073 21.024C138.649 20.592 138.937 20.04 138.937 19.368C138.937 18.808 138.729 18.368 138.313 18.048C137.913 17.728 137.217 17.464 136.225 17.256L133.585 16.704C130.577 16.064 129.073 14.52 129.073 12.072C129.073 11.016 129.353 10.096 129.913 9.312C130.473 8.528 131.249 7.92 132.241 7.488C133.233 7.056 134.377 6.84 135.673 6.84C136.825 6.84 137.905 7.016 138.913 7.368C139.921 7.704 140.761 8.184 141.433 8.808L140.497 11.112C139.169 9.992 137.553 9.432 135.649 9.432C134.545 9.432 133.681 9.664 133.057 10.128C132.433 10.592 132.121 11.2 132.121 11.952C132.121 12.528 132.313 12.992 132.697 13.344C133.081 13.68 133.737 13.944 134.665 14.136L137.281 14.688C138.865 15.024 140.041 15.552 140.809 16.272C141.593 16.992 141.985 17.952 141.985 19.152C141.985 20.16 141.713 21.048 141.169 21.816C140.625 22.584 139.849 23.184 138.841 23.616C137.849 24.032 136.673 24.24 135.313 24.24ZM145.202 28.32L147.362 23.52L142.49 12.264H145.682L148.97 20.472L152.33 12.264H155.354L148.298 28.32H145.202ZM160.84 24.24C159.848 24.24 158.92 24.12 158.056 23.88C157.192 23.64 156.472 23.296 155.896 22.848L156.664 20.88C157.256 21.28 157.92 21.592 158.656 21.816C159.392 22.024 160.128 22.128 160.864 22.128C161.632 22.128 162.2 22 162.568 21.744C162.952 21.472 163.144 21.12 163.144 20.688C163.144 20.016 162.648 19.584 161.656 19.392L159.256 18.936C157.224 18.552 156.208 17.496 156.208 15.768C156.208 15 156.416 14.336 156.832 13.776C157.264 13.216 157.856 12.784 158.608 12.48C159.36 12.176 160.224 12.024 161.2 12.024C162.032 12.024 162.832 12.144 163.6 12.384C164.368 12.608 165.024 12.952 165.568 13.416L164.752 15.384C164.288 15 163.728 14.696 163.072 14.472C162.432 14.248 161.816 14.136 161.224 14.136C160.44 14.136 159.856 14.272 159.472 14.544C159.104 14.816 158.92 15.176 158.92 15.624C158.92 16.328 159.376 16.76 160.288 16.92L162.688 17.376C163.728 17.568 164.512 17.92 165.04 18.432C165.584 18.944 165.856 19.632 165.856 20.496C165.856 21.664 165.4 22.584 164.488 23.256C163.576 23.912 162.36 24.24 160.84 24.24ZM173.522 24.24C170.418 24.24 168.866 22.704 168.866 19.632V14.52H166.61V12.264H168.866V8.76H171.866V12.264H175.418V14.52H171.866V19.464C171.866 20.232 172.034 20.808 172.37 21.192C172.706 21.576 173.25 21.768 174.002 21.768C174.226 21.768 174.458 21.744 174.698 21.696C174.938 21.632 175.186 21.568 175.442 21.504L175.898 23.712C175.61 23.872 175.242 24 174.794 24.096C174.362 24.192 173.938 24.24 173.522 24.24ZM183.024 24.24C181.696 24.24 180.552 23.992 179.592 23.496C178.632 23 177.888 22.296 177.36 21.384C176.848 20.472 176.592 19.392 176.592 18.144C176.592 16.928 176.84 15.864 177.336 14.952C177.848 14.04 178.544 13.328 179.424 12.816C180.32 12.288 181.336 12.024 182.472 12.024C184.136 12.024 185.448 12.552 186.408 13.608C187.384 14.664 187.872 16.104 187.872 17.928V18.816H179.472C179.696 20.912 180.896 21.96 183.072 21.96C183.728 21.96 184.384 21.864 185.04 21.672C185.696 21.464 186.296 21.144 186.84 20.712L187.68 22.728C187.12 23.192 186.416 23.56 185.568 23.832C184.72 24.104 183.872 24.24 183.024 24.24ZM182.592 14.064C181.712 14.064 181 14.336 180.456 14.88C179.912 15.424 179.584 16.16 179.472 17.088H185.376C185.312 16.112 185.04 15.368 184.56 14.856C184.096 14.328 183.44 14.064 182.592 14.064ZM190.296 24V12.264H193.224V14.064C193.576 13.424 194.064 12.928 194.688 12.576C195.312 12.208 196.032 12.024 196.848 12.024C198.608 12.024 199.76 12.792 200.304 14.328C200.672 13.608 201.2 13.048 201.888 12.648C202.576 12.232 203.36 12.024 204.24 12.024C206.88 12.024 208.2 13.632 208.2 16.848V24H205.2V16.968C205.2 16.072 205.048 15.416 204.744 15C204.456 14.584 203.96 14.376 203.256 14.376C202.472 14.376 201.856 14.656 201.408 15.216C200.96 15.76 200.736 16.52 200.736 17.496V24H197.736V16.968C197.736 16.072 197.584 15.416 197.28 15C196.992 14.584 196.504 14.376 195.816 14.376C195.032 14.376 194.416 14.656 193.968 15.216C193.52 15.76 193.296 16.52 193.296 17.496V24H190.296Z" fill="#903E90"/>
</svg>
