<svg width="15" height="960" viewBox="0 0 15 960" fill="none" xmlns="http://www.w3.org/2000/svg">
<path d="M0 1.93321C0 0.865527 0.846344 0 1.89036 0H12.4449C13.4889 0 14.3352 0.865527 14.3352 1.93321V3.20386L7.71188 7.79398C7.46966 7.96184 7.32515 8.2378 7.32515 8.5325V9.83299C7.32515 10.1277 7.46966 10.4037 7.71188 10.5715L14.3352 15.1616V18.4279L7.71188 23.018C7.46966 23.1859 7.32515 23.4618 7.32515 23.7565V25.057C7.32515 25.3517 7.46966 25.6277 7.71188 25.7955L14.3352 30.3857V31.898C14.3352 32.9656 13.4889 33.8312 12.4449 33.8312H1.89036C0.846343 33.8312 0 32.9656 0 31.898V1.93321Z" fill="#4EEECA"/>
<path d="M0 479.956C0 478.888 0.846344 478.023 1.89036 478.023H12.4449C13.4889 478.023 14.3352 478.888 14.3352 479.956V481.226L7.71188 485.817C7.46966 485.984 7.32515 486.26 7.32515 486.555V487.856C7.32515 488.15 7.46966 488.426 7.71188 488.594L14.3352 493.184V496.45L7.71188 501.041C7.46966 501.208 7.32515 501.484 7.32515 501.779V503.08C7.32515 503.374 7.46966 503.65 7.71188 503.818L14.3352 508.408V509.921C14.3352 510.988 13.4889 511.854 12.4449 511.854H1.89036C0.846343 511.854 0 510.988 0 509.921V479.956Z" fill="#4EEECA"/>
<path d="M0 240.945C0 239.877 0.846344 239.011 1.89036 239.011H12.4449C13.4889 239.011 14.3352 239.877 14.3352 240.945V242.215L7.71188 246.805C7.46966 246.973 7.32515 247.249 7.32515 247.544V248.844C7.32515 249.139 7.46966 249.415 7.71188 249.583L14.3352 254.173V257.439L7.71188 262.029C7.46966 262.197 7.32515 262.473 7.32515 262.768V264.068C7.32515 264.363 7.46966 264.639 7.71188 264.807L14.3352 269.397V270.909C14.3352 271.977 13.4889 272.842 12.4449 272.842H1.89036C0.846343 272.842 0 271.977 0 270.909V240.945Z" fill="#4EEECA"/>
<path d="M0 718.967C0 717.899 0.846344 717.034 1.89036 717.034H12.4449C13.4889 717.034 14.3352 717.899 14.3352 718.967V720.238L7.71188 724.828C7.46966 724.996 7.32515 725.272 7.32515 725.566V726.867C7.32515 727.162 7.46966 727.438 7.71188 727.605L14.3352 732.196V735.462L7.71188 740.052C7.46966 740.22 7.32515 740.496 7.32515 740.79V742.091C7.32515 742.386 7.46966 742.662 7.71188 742.829L14.3352 747.42V748.932C14.3352 750 13.4889 750.865 12.4449 750.865H1.89036C0.846343 750.865 0 750 0 748.932V718.967Z" fill="#4EEECA"/>
<path d="M0 121.439C0 120.371 0.846344 119.506 1.89036 119.506H12.4449C13.4889 119.506 14.3352 120.371 14.3352 121.439V122.71L7.71188 127.3C7.46966 127.468 7.32515 127.743 7.32515 128.038V129.339C7.32515 129.633 7.46966 129.909 7.71188 130.077L14.3352 134.667V137.934L7.71188 142.524C7.46966 142.692 7.32515 142.968 7.32515 143.262V144.563C7.32515 144.857 7.46966 145.133 7.71188 145.301L14.3352 149.891V151.404C14.3352 152.471 13.4889 153.337 12.4449 153.337H1.89036C0.846343 153.337 0 152.471 0 151.404V121.439Z" fill="#4EEECA"/>
<path d="M0 599.462C0 598.394 0.846344 597.528 1.89036 597.528H12.4449C13.4889 597.528 14.3352 598.394 14.3352 599.462V600.732L7.71188 605.322C7.46966 605.49 7.32515 605.766 7.32515 606.061V607.361C7.32515 607.656 7.46966 607.932 7.71188 608.1L14.3352 612.69V615.956L7.71188 620.546C7.46966 620.714 7.32515 620.99 7.32515 621.285V622.585C7.32515 622.88 7.46966 623.156 7.71188 623.324L14.3352 627.914V629.426C14.3352 630.494 13.4889 631.359 12.4449 631.359H1.89036C0.846343 631.359 0 630.494 0 629.426V599.462Z" fill="#4EEECA"/>
<path d="M0 360.45C0 359.382 0.846344 358.517 1.89036 358.517H12.4449C13.4889 358.517 14.3352 359.382 14.3352 360.45V361.721L7.71188 366.311C7.46966 366.479 7.32515 366.755 7.32515 367.049V368.35C7.32515 368.645 7.46966 368.921 7.71188 369.088L14.3352 373.679V376.945L7.71188 381.535C7.46966 381.703 7.32515 381.979 7.32515 382.273V383.574C7.32515 383.869 7.46966 384.145 7.71188 384.313L14.3352 388.903V390.415C14.3352 391.483 13.4889 392.348 12.4449 392.348H1.89036C0.846343 392.348 0 391.483 0 390.415V360.45Z" fill="#4EEECA"/>
<path d="M0 838.473C0 837.405 0.846344 836.54 1.89036 836.54H12.4449C13.4889 836.54 14.3352 837.405 14.3352 838.473V839.744L7.71188 844.334C7.46966 844.502 7.32515 844.777 7.32515 845.072V846.373C7.32515 846.667 7.46966 846.943 7.71188 847.111L14.3352 851.701V854.968L7.71188 859.558C7.46966 859.726 7.32515 860.002 7.32515 860.296V861.597C7.32515 861.891 7.46966 862.167 7.71188 862.335L14.3352 866.925V868.438C14.3352 869.505 13.4889 870.371 12.4449 870.371H1.89036C0.846343 870.371 0 869.505 0 868.438V838.473Z" fill="#4EEECA"/>
<path d="M0 61.6861C0 60.6184 0.846344 59.7529 1.89036 59.7529H12.4449C13.4889 59.7529 14.3352 60.6184 14.3352 61.6861V62.9567L7.71188 67.5468C7.46966 67.7147 7.32515 67.9907 7.32515 68.2854V69.5859C7.32515 69.8806 7.46966 70.1565 7.71188 70.3244L14.3352 74.9145V78.1808L7.71188 82.7709C7.46966 82.9387 7.32515 83.2147 7.32515 83.5094V84.8099C7.32515 85.1046 7.46966 85.3805 7.71188 85.5484L14.3352 90.1385V91.6508C14.3352 92.7185 13.4889 93.584 12.4449 93.584H1.89036C0.846343 93.584 0 92.7185 0 91.6508V61.6861Z" fill="#4EEECA"/>
<path d="M0 539.709C0 538.641 0.846344 537.776 1.89036 537.776H12.4449C13.4889 537.776 14.3352 538.641 14.3352 539.709V540.979L7.71188 545.57C7.46966 545.737 7.32515 546.013 7.32515 546.308V547.609C7.32515 547.903 7.46966 548.179 7.71188 548.347L14.3352 552.937V556.203L7.71188 560.794C7.46966 560.961 7.32515 561.237 7.32515 561.532V562.833C7.32515 563.127 7.46966 563.403 7.71188 563.571L14.3352 568.161V569.674C14.3352 570.741 13.4889 571.607 12.4449 571.607H1.89036C0.846343 571.607 0 570.741 0 569.674V539.709Z" fill="#4EEECA"/>
<path d="M0 300.697C0 299.63 0.846344 298.764 1.89036 298.764H12.4449C13.4889 298.764 14.3352 299.63 14.3352 300.697V301.968L7.71188 306.558C7.46966 306.726 7.32515 307.002 7.32515 307.297V308.597C7.32515 308.892 7.46966 309.168 7.71188 309.336L14.3352 313.926V317.192L7.71188 321.782C7.46966 321.95 7.32515 322.226 7.32515 322.521V323.821C7.32515 324.116 7.46966 324.392 7.71188 324.56L14.3352 329.15V330.662C14.3352 331.73 13.4889 332.595 12.4449 332.595H1.89036C0.846343 332.595 0 331.73 0 330.662V300.697Z" fill="#4EEECA"/>
<path d="M0 778.72C0 777.652 0.846344 776.787 1.89036 776.787H12.4449C13.4889 776.787 14.3352 777.652 14.3352 778.72V779.99L7.71188 784.581C7.46966 784.748 7.32515 785.024 7.32515 785.319V786.62C7.32515 786.914 7.46966 787.19 7.71188 787.358L14.3352 791.948V795.215L7.71188 799.805C7.46966 799.972 7.32515 800.248 7.32515 800.543V801.844C7.32515 802.138 7.46966 802.414 7.71188 802.582L14.3352 807.172V808.685C14.3352 809.752 13.4889 810.618 12.4449 810.618H1.89036C0.846343 810.618 0 809.752 0 808.685V778.72Z" fill="#4EEECA"/>
<path d="M0 181.192C0 180.124 0.846344 179.259 1.89036 179.259H12.4449C13.4889 179.259 14.3352 180.124 14.3352 181.192V182.462L7.71188 187.053C7.46966 187.22 7.32515 187.496 7.32515 187.791V189.092C7.32515 189.386 7.46966 189.662 7.71188 189.83L14.3352 194.42V197.686L7.71188 202.277C7.46966 202.444 7.32515 202.72 7.32515 203.015V204.316C7.32515 204.61 7.46966 204.886 7.71188 205.054L14.3352 209.644V211.157C14.3352 212.224 13.4889 213.09 12.4449 213.09H1.89036C0.846343 213.09 0 212.224 0 211.157V181.192Z" fill="#4EEECA"/>
<path d="M0 659.214C0 658.147 0.846344 657.281 1.89036 657.281H12.4449C13.4889 657.281 14.3352 658.147 14.3352 659.214V660.485L7.71188 665.075C7.46966 665.243 7.32515 665.519 7.32515 665.814V667.114C7.32515 667.409 7.46966 667.685 7.71188 667.853L14.3352 672.443V675.709L7.71188 680.299C7.46966 680.467 7.32515 680.743 7.32515 681.038V682.338C7.32515 682.633 7.46966 682.909 7.71188 683.077L14.3352 687.667V689.179C14.3352 690.247 13.4889 691.112 12.4449 691.112H1.89036C0.846343 691.112 0 690.247 0 689.179V659.214Z" fill="#4EEECA"/>
<path d="M0 420.203C0 419.135 0.846344 418.27 1.89036 418.27H12.4449C13.4889 418.27 14.3352 419.135 14.3352 420.203V421.474L7.71188 426.064C7.46966 426.232 7.32515 426.508 7.32515 426.802V428.103C7.32515 428.398 7.46966 428.673 7.71188 428.841L14.3352 433.431V436.698L7.71188 441.288C7.46966 441.456 7.32515 441.732 7.32515 442.026V443.327C7.32515 443.622 7.46966 443.898 7.71188 444.065L14.3352 448.655V450.168C14.3352 451.235 13.4889 452.101 12.4449 452.101H1.89036C0.846343 452.101 0 451.235 0 450.168V420.203Z" fill="#4EEECA"/>
<path d="M0 898.226C0 897.158 0.846344 896.292 1.89036 896.292H12.4449C13.4889 896.292 14.3352 897.158 14.3352 898.226V899.496L7.71188 904.086C7.46966 904.254 7.32515 904.53 7.32515 904.825V906.125C7.32515 906.42 7.46966 906.696 7.71188 906.864L14.3352 911.454V914.72L7.71188 919.31C7.46966 919.478 7.32515 919.754 7.32515 920.049V921.349C7.32515 921.644 7.46966 921.92 7.71188 922.088L14.3352 926.678V928.19C14.3352 929.258 13.4889 930.124 12.4449 930.124H1.89036C0.846343 930.124 0 929.258 0 928.19V898.226Z" fill="#4EEECA"/>
<path d="M0 31.8096C0 30.7419 0.846344 29.8764 1.89036 29.8764H12.4449C13.4889 29.8764 14.3352 30.7419 14.3352 31.8096V33.0802L7.71188 37.6703C7.46966 37.8382 7.32515 38.1142 7.32515 38.4089V39.7094C7.32515 40.0041 7.46966 40.28 7.71188 40.4479L14.3352 45.038V48.3043L7.71188 52.8944C7.46966 53.0622 7.32515 53.3382 7.32515 53.6329V54.9334C7.32515 55.2281 7.46966 55.5041 7.71188 55.6719L14.3352 60.262V61.7743C14.3352 62.842 13.4889 63.7075 12.4449 63.7075H1.89036C0.846343 63.7075 0 62.842 0 61.7743V31.8096Z" fill="#4EEECA"/>
<path d="M0 509.832C0 508.765 0.846344 507.899 1.89036 507.899H12.4449C13.4889 507.899 14.3352 508.765 14.3352 509.832V511.103L7.71188 515.693C7.46966 515.861 7.32515 516.137 7.32515 516.431V517.732C7.32515 518.027 7.46966 518.303 7.71188 518.471L14.3352 523.061V526.327L7.71188 530.917C7.46966 531.085 7.32515 531.361 7.32515 531.656V532.956C7.32515 533.251 7.46966 533.527 7.71188 533.695L14.3352 538.285V539.797C14.3352 540.865 13.4889 541.73 12.4449 541.73H1.89036C0.846343 541.73 0 540.865 0 539.797V509.832Z" fill="#4EEECA"/>
<path d="M0 270.821C0 269.753 0.846344 268.888 1.89036 268.888H12.4449C13.4889 268.888 14.3352 269.753 14.3352 270.821V272.092L7.71188 276.682C7.46966 276.85 7.32515 277.126 7.32515 277.42V278.721C7.32515 279.016 7.46966 279.291 7.71188 279.459L14.3352 284.049V287.316L7.71188 291.906C7.46966 292.074 7.32515 292.35 7.32515 292.644V293.945C7.32515 294.24 7.46966 294.515 7.71188 294.683L14.3352 299.273V300.786C14.3352 301.853 13.4889 302.719 12.4449 302.719H1.89036C0.846343 302.719 0 301.853 0 300.786V270.821Z" fill="#4EEECA"/>
<path d="M0 748.844C0 747.776 0.846344 746.911 1.89036 746.911H12.4449C13.4889 746.911 14.3352 747.776 14.3352 748.844V750.114L7.71188 754.704C7.46966 754.872 7.32515 755.148 7.32515 755.443V756.744C7.32515 757.038 7.46966 757.314 7.71188 757.482L14.3352 762.072V765.338L7.71188 769.929C7.46966 770.096 7.32515 770.372 7.32515 770.667V771.968C7.32515 772.262 7.46966 772.538 7.71188 772.706L14.3352 777.296V778.808C14.3352 779.876 13.4889 780.742 12.4449 780.742H1.89036C0.846343 780.742 0 779.876 0 778.808V748.844Z" fill="#4EEECA"/>
<path d="M0 151.315C0 150.248 0.846344 149.382 1.89036 149.382H12.4449C13.4889 149.382 14.3352 150.248 14.3352 151.315V152.586L7.71188 157.176C7.46966 157.344 7.32515 157.62 7.32515 157.915V159.215C7.32515 159.51 7.46966 159.786 7.71188 159.954L14.3352 164.544V167.81L7.71188 172.4C7.46966 172.568 7.32515 172.844 7.32515 173.139V174.439C7.32515 174.734 7.46966 175.01 7.71188 175.178L14.3352 179.768V181.28C14.3352 182.348 13.4889 183.213 12.4449 183.213H1.89036C0.846343 183.213 0 182.348 0 181.28V151.315Z" fill="#4EEECA"/>
<path d="M0 629.338C0 628.27 0.846344 627.405 1.89036 627.405H12.4449C13.4889 627.405 14.3352 628.27 14.3352 629.338V630.609L7.71188 635.199C7.46966 635.367 7.32515 635.643 7.32515 635.937V637.238C7.32515 637.532 7.46966 637.808 7.71188 637.976L14.3352 642.566V645.833L7.71188 650.423C7.46966 650.591 7.32515 650.867 7.32515 651.161V652.462C7.32515 652.756 7.46966 653.032 7.71188 653.2L14.3352 657.79V659.303C14.3352 660.37 13.4889 661.236 12.4449 661.236H1.89036C0.846343 661.236 0 660.37 0 659.303V629.338Z" fill="#4EEECA"/>
<path d="M0 390.327C0 389.259 0.846344 388.393 1.89036 388.393H12.4449C13.4889 388.393 14.3352 389.259 14.3352 390.327V391.597L7.71188 396.187C7.46966 396.355 7.32515 396.631 7.32515 396.926V398.226C7.32515 398.521 7.46966 398.797 7.71188 398.965L14.3352 403.555V406.821L7.71188 411.411C7.46966 411.579 7.32515 411.855 7.32515 412.15V413.45C7.32515 413.745 7.46966 414.021 7.71188 414.189L14.3352 418.779V420.291C14.3352 421.359 13.4889 422.224 12.4449 422.224H1.89036C0.846343 422.224 0 421.359 0 420.291V390.327Z" fill="#4EEECA"/>
<path d="M0 868.349C0 867.282 0.846344 866.416 1.89036 866.416H12.4449C13.4889 866.416 14.3352 867.282 14.3352 868.349V869.62L7.71188 874.21C7.46966 874.378 7.32515 874.654 7.32515 874.949V876.249C7.32515 876.544 7.46966 876.82 7.71188 876.988L14.3352 881.578V884.844L7.71188 889.434C7.46966 889.602 7.32515 889.878 7.32515 890.173V891.473C7.32515 891.768 7.46966 892.044 7.71188 892.212L14.3352 896.802V898.314C14.3352 899.382 13.4889 900.247 12.4449 900.247H1.89036C0.846343 900.247 0 899.382 0 898.314V868.349Z" fill="#4EEECA"/>
<path d="M0 91.5625C0 90.4948 0.846344 89.6293 1.89036 89.6293H12.4449C13.4889 89.6293 14.3352 90.4948 14.3352 91.5625V92.8331L7.71188 97.4232C7.46966 97.5911 7.32515 97.8671 7.32515 98.1618V99.4623C7.32515 99.757 7.46966 100.033 7.71188 100.201L14.3352 104.791V108.057L7.71188 112.647C7.46966 112.815 7.32515 113.091 7.32515 113.386V114.686C7.32515 114.981 7.46966 115.257 7.71188 115.425L14.3352 120.015V121.527C14.3352 122.595 13.4889 123.46 12.4449 123.46H1.89036C0.846343 123.46 0 122.595 0 121.527V91.5625Z" fill="#4EEECA"/>
<path d="M0 569.585C0 568.518 0.846344 567.652 1.89036 567.652H12.4449C13.4889 567.652 14.3352 568.518 14.3352 569.585V570.856L7.71188 575.446C7.46966 575.614 7.32515 575.89 7.32515 576.184V577.485C7.32515 577.78 7.46966 578.056 7.71188 578.223L14.3352 582.814V586.08L7.71188 590.67C7.46966 590.838 7.32515 591.114 7.32515 591.409V592.709C7.32515 593.004 7.46966 593.28 7.71188 593.448L14.3352 598.038V599.55C14.3352 600.618 13.4889 601.483 12.4449 601.483H1.89036C0.846343 601.483 0 600.618 0 599.55V569.585Z" fill="#4EEECA"/>
<path d="M0 330.574C0 329.506 0.846344 328.641 1.89036 328.641H12.4449C13.4889 328.641 14.3352 329.506 14.3352 330.574V331.845L7.71188 336.435C7.46966 336.603 7.32515 336.878 7.32515 337.173V338.474C7.32515 338.768 7.46966 339.044 7.71188 339.212L14.3352 343.802V347.069L7.71188 351.659C7.46966 351.827 7.32515 352.103 7.32515 352.397V353.698C7.32515 353.992 7.46966 354.268 7.71188 354.436L14.3352 359.026V360.539C14.3352 361.606 13.4889 362.472 12.4449 362.472H1.89036C0.846343 362.472 0 361.606 0 360.539V330.574Z" fill="#4EEECA"/>
<path d="M0 808.596C0 807.529 0.846344 806.663 1.89036 806.663H12.4449C13.4889 806.663 14.3352 807.529 14.3352 808.596V809.867L7.71188 814.457C7.46966 814.625 7.32515 814.901 7.32515 815.196V816.496C7.32515 816.791 7.46966 817.067 7.71188 817.235L14.3352 821.825V825.091L7.71188 829.681C7.46966 829.849 7.32515 830.125 7.32515 830.42V831.72C7.32515 832.015 7.46966 832.291 7.71188 832.459L14.3352 837.049V838.561C14.3352 839.629 13.4889 840.494 12.4449 840.494H1.89036C0.846343 840.494 0 839.629 0 838.561V808.596Z" fill="#4EEECA"/>
<path d="M0 211.068C0 210 0.846344 209.135 1.89036 209.135H12.4449C13.4889 209.135 14.3352 210 14.3352 211.068V212.339L7.71188 216.929C7.46966 217.097 7.32515 217.373 7.32515 217.667V218.968C7.32515 219.263 7.46966 219.539 7.71188 219.706L14.3352 224.297V227.563L7.71188 232.153C7.46966 232.321 7.32515 232.597 7.32515 232.891V234.192C7.32515 234.487 7.46966 234.763 7.71188 234.93L14.3352 239.521V241.033C14.3352 242.101 13.4889 242.966 12.4449 242.966H1.89036C0.846343 242.966 0 242.101 0 241.033V211.068Z" fill="#4EEECA"/>
<path d="M0 689.091C0 688.023 0.846344 687.157 1.89036 687.157H12.4449C13.4889 687.157 14.3352 688.023 14.3352 689.091V690.361L7.71188 694.951C7.46966 695.119 7.32515 695.395 7.32515 695.69V696.99C7.32515 697.285 7.46966 697.561 7.71188 697.729L14.3352 702.319V705.585L7.71188 710.175C7.46966 710.343 7.32515 710.619 7.32515 710.914V712.214C7.32515 712.509 7.46966 712.785 7.71188 712.953L14.3352 717.543V719.055C14.3352 720.123 13.4889 720.989 12.4449 720.989H1.89036C0.846343 720.989 0 720.123 0 719.055V689.091Z" fill="#4EEECA"/>
<path d="M0 450.079C0 449.012 0.846344 448.146 1.89036 448.146H12.4449C13.4889 448.146 14.3352 449.012 14.3352 450.079V451.35L7.71188 455.94C7.46966 456.108 7.32515 456.384 7.32515 456.679V457.979C7.32515 458.274 7.46966 458.55 7.71188 458.718L14.3352 463.308V466.574L7.71188 471.164C7.46966 471.332 7.32515 471.608 7.32515 471.903V473.203C7.32515 473.498 7.46966 473.774 7.71188 473.942L14.3352 478.532V480.044C14.3352 481.112 13.4889 481.977 12.4449 481.977H1.89036C0.846343 481.977 0 481.112 0 480.044V450.079Z" fill="#4EEECA"/>
<path d="M0 928.102C0 927.035 0.846344 926.169 1.89036 926.169H12.4449C13.4889 926.169 14.3352 927.035 14.3352 928.102V929.373L7.71188 933.963C7.46966 934.131 7.32515 934.407 7.32515 934.702V936.002C7.32515 936.297 7.46966 936.573 7.71188 936.741L14.3352 941.331V944.597L7.71188 949.187C7.46966 949.355 7.32515 949.631 7.32515 949.926V951.226C7.32515 951.521 7.46966 951.797 7.71188 951.965L14.3352 956.555V958.067C14.3352 959.135 13.4889 960 12.4449 960H1.89036C0.846343 960 0 959.135 0 958.067V928.102Z" fill="#4EEECA"/>
</svg>
