<svg width="123" height="45" viewBox="0 0 123 45" fill="none" xmlns="http://www.w3.org/2000/svg">
<g clip-path="url(#clip0_4246_11078)">
<path d="M113.02 8.83929L111.52 12.2718C115.919 12.5958 119.399 16.2684 119.399 20.745C119.399 25.2217 115.583 29.2483 110.896 29.2483C108.658 29.2483 106.63 28.3722 105.111 26.9559L103.611 30.3884C105.639 31.9247 108.16 32.8488 110.896 32.8488C117.569 32.8488 123 27.418 123 20.745C123 14.7982 118.685 9.84744 113.02 8.83929Z" fill="#4EEECA"/>
<path d="M109.258 27.184V22.2212H104.451V19.1068H109.258V14.3061H112.535V19.1068H117.335V22.2212H112.535V27.184H109.258Z" fill="white"/>
<path d="M49.7593 7.45308C53.3658 7.45308 56.0362 8.35322 57.7645 10.1595C59.5287 11.9657 60.4169 14.7081 60.4169 18.3867V35.0631H55.0581V30.5925C54.356 32.1767 53.3118 33.3889 51.9076 34.235C50.5454 35.0451 48.9432 35.4472 47.1009 35.4472C45.2587 35.4472 43.7164 35.0991 42.2402 34.397C40.77 33.6589 39.6058 32.6508 38.7597 31.3606C37.9496 30.0704 37.5475 28.6362 37.5475 27.052C37.5475 25.1017 38.0456 23.5714 39.0358 22.4673C40.0679 21.3271 41.7421 20.517 44.0585 20.0369C46.4168 19.5569 49.6333 19.3168 53.7199 19.3168H54.9921V17.7146C54.9921 15.6503 54.548 14.1621 53.6659 13.2439C52.8198 12.3258 51.4216 11.8637 49.4713 11.8637C46.4168 11.8637 43.3624 12.7999 40.3019 14.6781L38.6457 10.7596C40.0799 9.76342 41.8142 8.97131 43.8365 8.38322C45.9008 7.75913 47.869 7.44708 49.7473 7.44708L49.7593 7.45308ZM48.1031 31.3126C50.1254 31.3126 51.7876 30.6345 53.0718 29.2723C54.362 27.8741 55.0041 26.0858 55.0041 23.9135V22.4793H54.0079C51.1335 22.4793 48.9252 22.6053 47.383 22.8633C45.8347 23.1214 44.7306 23.5654 44.0705 24.1895C43.4104 24.7776 43.0743 25.6417 43.0743 26.7879C43.0743 28.0781 43.5364 29.1643 44.4545 30.0464C45.4147 30.8925 46.6269 31.3186 48.0971 31.3186L48.1031 31.3126Z" fill="white"/>
<path d="M34.295 31.1446C35.1411 31.1446 35.9693 31.0905 36.7794 30.9765V35.2312C35.8613 35.3812 34.6251 35.4532 33.6289 35.4532C30.1304 35.4532 27.52 34.6071 25.7858 32.9148C24.0935 31.1866 23.2474 28.7022 23.2474 25.4617V12.4278H18.0026V8.11919H23.2474V0H28.8222V8.11919H36.2213V12.4278H28.8222V25.2397C28.8222 29.1763 30.6465 31.1506 34.289 31.1506L34.295 31.1446Z" fill="white"/>
<path d="M63.4353 0H69.0101V35.0691H63.4353V0Z" fill="white"/>
<path d="M72.2206 0H77.7954V35.0691H72.2206V0Z" fill="white"/>
<path d="M107.83 8.17322L91.7594 45.0066H86.1246L90.8173 34.4031L79.4936 8.17322H85.3505L93.7457 28.7742L102.249 8.17322H107.824H107.83Z" fill="white"/>
<path d="M0 2.0223C0 0.906133 0.88813 0 1.98029 0H13.0279C14.1201 0 15.0082 0.906133 15.0082 2.0223V3.35449L8.63526 7.77114C8.02918 8.1912 7.66912 8.8753 7.66912 9.61341C7.66912 10.3455 8.02918 11.0356 8.63526 11.4557L15.0082 15.8723V19.2928L8.63526 23.7095C8.02918 24.1295 7.66912 24.8136 7.66912 25.5517C7.66912 26.2838 8.02918 26.9739 8.63526 27.394L15.0082 31.8107V33.3949C15.0082 34.5111 14.1201 35.4172 13.0279 35.4172H1.98029C0.88813 35.4172 0 34.5111 0 33.3949V2.0223Z" fill="#4EEECA"/>
</g>
<defs>
<clipPath id="clip0_4246_11078">
<rect width="123" height="45.0066" fill="white"/>
</clipPath>
</defs>
</svg>
