<svg width="205" height="75" viewBox="0 0 205 75" fill="none" xmlns="http://www.w3.org/2000/svg">
<g clip-path="url(#clip0_4207_13688)">
<path d="M188.34 14.73L185.84 20.45C193.17 20.99 198.97 27.11 198.97 34.57C198.97 42.03 192.61 48.74 184.8 48.74C181.07 48.74 177.69 47.28 175.16 44.92L172.66 50.64C176.04 53.2 180.24 54.74 184.8 54.74C195.92 54.74 204.97 45.69 204.97 34.57C204.97 24.66 197.78 16.41 188.34 14.73Z" fill="#4EEECA"/>
<path d="M182.07 45.3V37.03H174.06V31.84H182.07V23.84H187.53V31.84H195.53V37.03H187.53V45.3H182.07Z" fill="#2C365D"/>
<path d="M82.9203 12.42C88.9303 12.42 93.3803 13.92 96.2603 16.93C99.2003 19.94 100.68 24.51 100.68 30.64V58.43H91.7503V50.98C90.5803 53.62 88.8403 55.64 86.5003 57.05C84.2303 58.4 81.5603 59.07 78.4903 59.07C75.4203 59.07 72.8503 58.49 70.3903 57.32C67.9403 56.09 66.0003 54.41 64.5903 52.26C63.2403 50.11 62.5703 47.72 62.5703 45.08C62.5703 41.83 63.4003 39.28 65.0503 37.44C66.7703 35.54 69.5603 34.19 73.4203 33.39C77.3503 32.59 82.7103 32.19 89.5203 32.19H91.6403V29.52C91.6403 26.08 90.9003 23.6 89.4303 22.07C88.0203 20.54 85.6903 19.77 82.4403 19.77C77.3503 19.77 72.2603 21.33 67.1603 24.46L64.4003 17.93C66.7903 16.27 69.6803 14.95 73.0503 13.97C76.4903 12.93 79.7703 12.41 82.9003 12.41L82.9203 12.42ZM80.1603 52.18C83.5303 52.18 86.3003 51.05 88.4403 48.78C90.5903 46.45 91.6603 43.47 91.6603 39.85V37.46H90.0003C85.2103 37.46 81.5303 37.67 78.9603 38.1C76.3803 38.53 74.5403 39.27 73.4403 40.31C72.3403 41.29 71.7803 42.73 71.7803 44.64C71.7803 46.79 72.5503 48.6 74.0803 50.07C75.6803 51.48 77.7003 52.19 80.1503 52.19L80.1603 52.18Z" fill="#2C365D"/>
<path d="M57.15 51.9C58.56 51.9 59.94 51.81 61.29 51.62V58.71C59.76 58.96 57.7 59.08 56.04 59.08C50.21 59.08 45.86 57.67 42.97 54.85C40.15 51.97 38.74 47.83 38.74 42.43V20.71H30V13.53H38.74V0H48.03V13.53H60.36V20.71H48.03V42.06C48.03 48.62 51.07 51.91 57.14 51.91L57.15 51.9Z" fill="#2C365D"/>
<path d="M105.71 0H115V58.44H105.71V0Z" fill="#2C365D"/>
<path d="M120.35 0H129.64V58.44H120.35V0Z" fill="#2C365D"/>
<path d="M179.69 13.62L152.91 75H143.52L151.34 57.33L132.47 13.62H142.23L156.22 47.95L170.39 13.62H179.68H179.69Z" fill="#2C365D"/>
<path d="M0 3.37C0 1.51 1.48 0 3.3 0H21.71C23.53 0 25.01 1.51 25.01 3.37V5.59L14.39 12.95C13.38 13.65 12.78 14.79 12.78 16.02C12.78 17.24 13.38 18.39 14.39 19.09L25.01 26.45V32.15L14.39 39.51C13.38 40.21 12.78 41.35 12.78 42.58C12.78 43.8 13.38 44.95 14.39 45.65L25.01 53.01V55.65C25.01 57.51 23.53 59.02 21.71 59.02H3.3C1.48 59.02 0 57.51 0 55.65V3.37Z" fill="#4EEECA"/>
</g>
<defs>
<clipPath id="clip0_4207_13688">
<rect width="204.97" height="75" fill="white"/>
</clipPath>
</defs>
</svg>
