<svg width="41" height="18" viewBox="0 0 41 18" fill="none" xmlns="http://www.w3.org/2000/svg">
<path d="M33.576 17.4C32.696 17.4 31.848 17.32 31.032 17.16C30.232 17.016 29.488 16.8 28.8 16.512C28.128 16.224 27.528 15.88 27 15.48L27.936 13.056C28.464 13.424 29.016 13.744 29.592 14.016C30.184 14.272 30.808 14.472 31.464 14.616C32.136 14.744 32.84 14.808 33.576 14.808C34.84 14.808 35.76 14.6 36.336 14.184C36.912 13.752 37.2 13.2 37.2 12.528C37.2 12.16 37.112 11.848 36.936 11.592C36.76 11.32 36.472 11.088 36.072 10.896C35.672 10.704 35.144 10.544 34.488 10.416L31.848 9.864C30.328 9.544 29.192 9.008 28.44 8.256C27.704 7.488 27.336 6.48 27.336 5.232C27.336 4.176 27.616 3.256 28.176 2.472C28.736 1.688 29.512 1.08 30.504 0.648C31.496 0.216 32.64 0 33.936 0C34.704 0 35.44 0.0799999 36.144 0.24C36.864 0.384 37.52 0.608 38.112 0.912C38.72 1.2 39.248 1.552 39.696 1.968L38.76 4.272C38.088 3.712 37.352 3.296 36.552 3.024C35.752 2.736 34.872 2.592 33.912 2.592C33.176 2.592 32.544 2.696 32.016 2.904C31.488 3.112 31.08 3.408 30.792 3.792C30.52 4.16 30.384 4.6 30.384 5.112C30.384 5.688 30.576 6.152 30.96 6.504C31.344 6.84 32 7.104 32.928 7.296L35.544 7.848C37.128 8.184 38.304 8.712 39.072 9.432C39.856 10.152 40.248 11.112 40.248 12.312C40.248 13.32 39.976 14.208 39.432 14.976C38.888 15.744 38.112 16.344 37.104 16.776C36.112 17.192 34.936 17.4 33.576 17.4Z" fill="#903E90"/>
<path d="M11.2856 17.16V0.239998H17.5736C19.4616 0.239998 21.0616 0.567998 22.3736 1.224C23.7016 1.88 24.7096 2.84 25.3976 4.104C26.1016 5.352 26.4536 6.88 26.4536 8.688C26.4536 10.496 26.1016 12.032 25.3976 13.296C24.7096 14.56 23.7016 15.52 22.3736 16.176C21.0616 16.832 19.4616 17.16 17.5736 17.16H11.2856ZM14.3576 14.616H17.3816C19.3496 14.616 20.8136 14.128 21.7736 13.152C22.7496 12.16 23.2376 10.672 23.2376 8.688C23.2376 6.704 22.7496 5.224 21.7736 4.248C20.7976 3.272 19.3336 2.784 17.3816 2.784H14.3576V14.616Z" fill="#903E90"/>
<path d="M6.648 17.376C5.192 17.376 4.096 17 3.36 16.248C2.64 15.496 2.28 14.408 2.28 12.984V7.32H0V5.448H2.28V1.92H4.704V5.448H8.328V7.32H4.704V12.792C4.704 13.64 4.88 14.28 5.232 14.712C5.6 15.144 6.192 15.36 7.008 15.36C7.248 15.36 7.488 15.328 7.728 15.264C7.984 15.2 8.232 15.136 8.472 15.072L8.856 16.896C8.616 17.04 8.28 17.152 7.848 17.232C7.432 17.328 7.032 17.376 6.648 17.376Z" fill="#2C365D"/>
</svg>
